<svg xmlns="http://www.w3.org/2000/svg" width="18" height="17" viewBox="0 0 18 17">
  <defs>
    <style>
      .cls-1 {
        fill: #333;
        fill-rule: evenodd;
      }
    </style>
  </defs>
  <path id="_" data-name="" class="cls-1" d="M17.246,8.409a0.576,0.576,0,0,0-.167-0.385l-0.837-.837a0.526,0.526,0,0,0-.77,0L8.893,13.765,2.315,7.187A0.577,0.577,0,0,0,1.93,7.02a0.545,0.545,0,0,0-.385.167l-0.837.837a0.526,0.526,0,0,0,0,.77l7.8,7.8a0.527,0.527,0,0,0,.77,0l7.8-7.8A0.576,0.576,0,0,0,17.246,8.409Zm0-6.428A0.576,0.576,0,0,0,17.078,1.6l-0.837-.837a0.526,0.526,0,0,0-.77,0L8.893,7.338,2.315,0.759A0.577,0.577,0,0,0,1.93.592a0.545,0.545,0,0,0-.385.167L0.708,1.6a0.577,0.577,0,0,0-.167.385,0.577,0.577,0,0,0,.167.385l7.8,7.8a0.526,0.526,0,0,0,.77,0l7.8-7.8A0.576,0.576,0,0,0,17.246,1.981Z"/>
</svg>
