<svg width="110" height="38" viewBox="0 0 110 38" fill="none" xmlns="http://www.w3.org/2000/svg">
<path d="M43.1641 14.7008C43.315 14.1476 43.5832 13.7452 43.9688 13.4938C44.3711 13.2255 44.9495 13.0914 45.7039 13.0914C46.5254 13.0914 47.1373 13.2758 47.5397 13.6446C47.942 14.0135 48.1432 14.5164 48.1432 15.1535C48.1432 15.5893 48.0426 15.9582 47.8414 16.2599C47.6402 16.5617 47.3804 16.8215 47.0619 17.0395C46.7433 17.2407 46.3829 17.4167 45.9805 17.5676C45.595 17.7185 45.201 17.8693 44.7986 18.0202C44.3963 18.1543 44.0107 18.3052 43.6419 18.4729C43.273 18.6405 42.9629 18.8501 42.7114 19.1015C42.4767 19.3362 42.4516 19.6799 42.636 20.1326C42.8372 20.5852 43.1473 21.0965 43.5664 21.6665C44.0023 22.2365 44.5053 22.8485 45.0752 23.5023C45.6452 24.1561 46.1817 24.8183 46.6847 25.4889C47.2044 26.1427 47.6402 26.7882 47.9923 27.4252C48.3444 28.0455 48.5204 28.6155 48.5204 29.1352C48.5204 30.3423 48.0007 30.9458 46.9613 30.9458H43.9185C43.3653 30.9458 42.9629 30.7949 42.7114 30.4932C42.4767 30.1914 42.3594 29.7387 42.3594 29.1352C42.3594 28.4479 42.2336 27.6935 41.9822 26.872C41.7475 26.0337 41.4457 25.2542 41.0769 24.5333C40.708 23.8124 40.2973 23.2173 39.8447 22.7479C39.4088 22.2617 38.9897 22.0186 38.5873 22.0186C38.3694 22.0186 38.2017 22.094 38.0844 22.2449C37.967 22.3958 37.8748 22.5802 37.8078 22.7982C37.7407 23.0161 37.6988 23.234 37.682 23.452C37.6653 23.6699 37.6569 23.846 37.6569 23.9801C37.6569 24.6004 37.7072 25.1452 37.8078 25.6146C37.9251 26.0673 38.0425 26.4864 38.1598 26.872C38.2939 27.2408 38.4113 27.6012 38.5119 27.9533C38.6125 28.3054 38.6628 28.6993 38.6628 29.1352C38.6628 29.7387 38.537 30.1914 38.2855 30.4932C38.0508 30.7949 37.6569 30.9458 37.1036 30.9458H34.0608C33.0214 30.9458 32.5017 30.3423 32.5017 29.1352C32.5017 28.5652 32.5604 28.0036 32.6778 27.4504C32.8119 26.8971 32.9544 26.3355 33.1053 25.7655C33.2561 25.1955 33.3903 24.6171 33.5076 24.0304C33.6417 23.4268 33.7088 22.7982 33.7088 22.1443C33.7088 21.4905 33.6417 20.8702 33.5076 20.2835C33.3903 19.6799 33.2561 19.0932 33.1053 18.5232C32.9544 17.9532 32.8119 17.3915 32.6778 16.8383C32.5604 16.2851 32.5017 15.7318 32.5017 15.1786C32.5017 13.9548 33.0214 13.3429 34.0608 13.3429H37.1036C37.6569 13.3429 38.0508 13.4938 38.2855 13.7955C38.537 14.0973 38.6628 14.5583 38.6628 15.1786C38.6628 15.7318 38.6041 16.218 38.4867 16.6371C38.3861 17.0395 38.2604 17.4251 38.1095 17.7939C37.9754 18.146 37.8497 18.5064 37.7323 18.8752C37.6317 19.2273 37.5814 19.638 37.5814 20.1074C37.5814 20.5433 37.7072 20.7612 37.9586 20.7612C38.0928 20.7612 38.2436 20.7193 38.4113 20.6355C38.5789 20.5349 38.7633 20.4176 38.9645 20.2835C39.3166 20.032 39.7022 19.7218 40.1213 19.353C40.5404 18.9674 40.9428 18.5399 41.3283 18.0705C41.7307 17.5843 42.0911 17.0563 42.4097 16.4863C42.745 15.9163 42.9964 15.3211 43.1641 14.7008ZM51.4885 24.659C51.4885 24.2064 51.4215 23.804 51.2874 23.452C51.17 23.0999 51.0359 22.773 50.885 22.4712C50.7341 22.1527 50.5916 21.8342 50.4575 21.5157C50.3401 21.1971 50.2815 20.8367 50.2815 20.4343C50.2815 20.032 50.4407 19.7051 50.7593 19.4536C51.0946 19.1854 51.4969 18.9758 51.9663 18.8249C52.4357 18.6573 52.9387 18.5399 53.4751 18.4729C54.0116 18.4058 54.481 18.3723 54.8834 18.3723C55.4366 18.3723 55.839 18.4896 56.0904 18.7243C56.3419 18.959 56.4676 19.3614 56.4676 19.9314C56.4676 20.3337 56.4006 20.7193 56.2665 21.0882C56.1491 21.457 56.015 21.8342 55.8641 22.2198C55.7132 22.5886 55.5707 22.9742 55.4366 23.3765C55.3193 23.7789 55.2606 24.2064 55.2606 24.659C55.2606 25.1117 55.3193 25.5392 55.4366 25.9415C55.5707 26.3439 55.7132 26.7379 55.8641 27.1235C56.015 27.4923 56.1491 27.8611 56.2665 28.2299C56.4006 28.5987 56.4676 28.9843 56.4676 29.3867C56.4676 29.8226 56.3419 30.1914 56.0904 30.4932C55.839 30.7949 55.4366 30.9458 54.8834 30.9458H51.8657C51.3125 30.9458 50.9101 30.7949 50.6587 30.4932C50.4072 30.1914 50.2815 29.8226 50.2815 29.3867C50.2815 28.9843 50.3401 28.5987 50.4575 28.2299C50.5916 27.8611 50.7341 27.4923 50.885 27.1235C51.0359 26.7379 51.17 26.3439 51.2874 25.9415C51.4215 25.5392 51.4885 25.1117 51.4885 24.659ZM50.7593 15.3295C50.7593 14.6589 50.994 14.1224 51.4634 13.7201C51.9328 13.301 52.5615 13.0914 53.3494 13.0914C54.1541 13.0914 54.7912 13.301 55.2606 13.7201C55.7468 14.1224 55.9899 14.6589 55.9899 15.3295C55.9899 16.0001 55.7468 16.5365 55.2606 16.9389C54.7912 17.3413 54.1541 17.5424 53.3494 17.5424C52.5615 17.5424 51.9328 17.3413 51.4634 16.9389C50.994 16.5365 50.7593 16.0001 50.7593 15.3295ZM73.2779 13.7704C73.2779 14.3739 73.2024 14.9858 73.0515 15.6061C72.9174 16.2264 72.7581 16.8635 72.5737 17.5173C72.4061 18.1543 72.2468 18.8082 72.0959 19.4787C71.9451 20.1493 71.8696 20.8283 71.8696 21.5157C71.8696 22.203 71.9283 22.8652 72.0456 23.5023C72.1798 24.1393 72.3223 24.768 72.4731 25.3883C72.624 25.9918 72.7581 26.5954 72.8755 27.1989C73.0096 27.8024 73.0767 28.4059 73.0767 29.0095C73.0767 30.3004 72.557 30.9458 71.5176 30.9458H69.4555C69.1034 30.9458 68.8184 30.929 68.6005 30.8955C68.3993 30.862 68.2317 30.8284 68.0976 30.7949C67.9802 30.7446 67.8712 30.7027 67.7706 30.6692C67.6868 30.6357 67.5779 30.6189 67.4437 30.6189C67.3431 30.6189 67.2258 30.6524 67.0917 30.7195C66.9576 30.7698 66.7899 30.8368 66.5887 30.9207C66.4043 30.9877 66.1612 31.0464 65.8595 31.0967C65.5745 31.1637 65.214 31.1973 64.7782 31.1973C63.8226 31.1973 62.9424 31.0967 62.1377 30.8955C61.333 30.6943 60.6373 30.3423 60.0505 29.8393C59.4637 29.3364 59.0027 28.6658 58.6674 27.8276C58.3321 26.9893 58.1645 25.9332 58.1645 24.659C58.1645 23.3849 58.3154 22.3287 58.6171 21.4905C58.9357 20.6523 59.3715 19.9817 59.9248 19.4787C60.4948 18.9758 61.157 18.6237 61.9114 18.4226C62.6826 18.2214 63.5208 18.1208 64.4261 18.1208C65.0799 18.1208 65.6332 18.1795 66.0858 18.2968C66.5384 18.3974 66.8989 18.5064 67.1671 18.6238C67.4521 18.7411 67.6533 18.8249 67.7706 18.8752C67.888 18.9255 67.9467 18.9004 67.9467 18.7998C67.9467 18.5483 67.9048 18.2549 67.8209 17.9196C67.7371 17.5843 67.6365 17.2323 67.5192 16.8635C67.4186 16.4779 67.3264 16.0923 67.2426 15.7067C67.1587 15.3043 67.1168 14.9104 67.1168 14.5248C67.1168 14.0218 67.2761 13.6027 67.5946 13.2674C67.9299 12.9321 68.3323 12.6555 68.8017 12.4376C69.2711 12.2196 69.7656 12.0688 70.2854 11.9849C70.8218 11.8843 71.2996 11.834 71.7187 11.834C72.272 11.834 72.6659 11.9933 72.9006 12.3118C73.1521 12.6304 73.2779 13.1165 73.2779 13.7704ZM67.997 23.7537C67.997 23.1502 67.9467 22.5886 67.8461 22.0689C67.7623 21.5492 67.6114 21.0965 67.3934 20.711C67.1923 20.3254 66.9156 20.0236 66.5636 19.8057C66.2283 19.571 65.8092 19.4536 65.3062 19.4536C64.5351 19.4536 63.9902 19.9146 63.6717 20.8367C63.3532 21.742 63.1939 23.0161 63.1939 24.659C63.1939 26.302 63.4034 27.5929 63.8226 28.5317C64.2417 29.4705 64.8704 29.9399 65.7086 29.9399C66.0606 29.9399 66.3792 29.7807 66.6642 29.4621C66.9492 29.1436 67.1923 28.7077 67.3934 28.1545C67.5946 27.6012 67.7455 26.9474 67.8461 26.193C67.9467 25.4386 67.997 24.6255 67.997 23.7537ZM76.2672 24.659C76.2672 24.2064 76.2001 23.804 76.066 23.452C75.9487 23.0999 75.8146 22.773 75.6637 22.4712C75.5128 22.1527 75.3703 21.8342 75.2362 21.5157C75.1188 21.1971 75.0601 20.8367 75.0601 20.4343C75.0601 20.032 75.2194 19.7051 75.5379 19.4536C75.8732 19.1854 76.2756 18.9758 76.745 18.8249C77.2144 18.6573 77.7174 18.5399 78.2538 18.4729C78.7903 18.4058 79.2597 18.3723 79.6621 18.3723C80.2153 18.3723 80.6176 18.4896 80.8691 18.7243C81.1206 18.959 81.2463 19.3614 81.2463 19.9314C81.2463 20.3337 81.1793 20.7193 81.0451 21.0882C80.9278 21.457 80.7937 21.8342 80.6428 22.2198C80.4919 22.5886 80.3494 22.9742 80.2153 23.3765C80.0979 23.7789 80.0393 24.2064 80.0393 24.659C80.0393 25.1117 80.0979 25.5392 80.2153 25.9415C80.3494 26.3439 80.4919 26.7379 80.6428 27.1235C80.7937 27.4923 80.9278 27.8611 81.0451 28.2299C81.1793 28.5987 81.2463 28.9843 81.2463 29.3867C81.2463 29.8226 81.1206 30.1914 80.8691 30.4932C80.6176 30.7949 80.2153 30.9458 79.6621 30.9458H76.6444C76.0912 30.9458 75.6888 30.7949 75.4374 30.4932C75.1859 30.1914 75.0601 29.8226 75.0601 29.3867C75.0601 28.9843 75.1188 28.5987 75.2362 28.2299C75.3703 27.8611 75.5128 27.4923 75.6637 27.1235C75.8146 26.7379 75.9487 26.3439 76.066 25.9415C76.2001 25.5392 76.2672 25.1117 76.2672 24.659ZM75.5379 15.3295C75.5379 14.6589 75.7726 14.1224 76.2421 13.7201C76.7115 13.301 77.3401 13.0914 78.1281 13.0914C78.9328 13.0914 79.5698 13.301 80.0393 13.7201C80.5254 14.1224 80.7685 14.6589 80.7685 15.3295C80.7685 16.0001 80.5254 16.5365 80.0393 16.9389C79.5698 17.3413 78.9328 17.5424 78.1281 17.5424C77.3401 17.5424 76.7115 17.3413 76.2421 16.9389C75.7726 16.5365 75.5379 16.0001 75.5379 15.3295ZM84.104 18.3723C84.322 18.3723 84.431 18.3136 84.431 18.1963C84.431 18.0621 84.389 17.8861 84.3052 17.6682C84.2214 17.4335 84.1208 17.1485 84.0035 16.8132C83.9029 16.4611 83.8526 16.0755 83.8526 15.6564C83.8526 14.9355 83.9867 14.332 84.2549 13.8458C84.5399 13.3596 84.9004 12.9657 85.3363 12.6639C85.7889 12.3621 86.2835 12.1526 86.8199 12.0352C87.3732 11.9011 87.918 11.834 88.4545 11.834C89.343 11.834 90.1058 11.9346 90.7429 12.1358C91.3967 12.3202 91.9332 12.5801 92.3523 12.9154C92.7882 13.2507 93.1067 13.653 93.3079 14.1224C93.509 14.5918 93.6096 15.0948 93.6096 15.6313C93.6096 16.0671 93.5426 16.4192 93.4085 16.6874C93.2911 16.9557 93.1318 17.1652 92.9307 17.3161C92.7295 17.467 92.5032 17.5676 92.2517 17.6179C92.017 17.6682 91.7739 17.6933 91.5224 17.6933C90.8351 17.6933 90.2986 17.5173 89.913 17.1652C89.5442 16.8132 89.3598 16.2096 89.3598 15.3546C89.3598 15.1032 89.3682 14.8517 89.3849 14.6002C89.4017 14.332 89.3849 14.0889 89.3346 13.871C89.3011 13.6363 89.2173 13.4518 89.0832 13.3177C88.9658 13.1668 88.7646 13.0914 88.4796 13.0914C88.2785 13.0914 88.1192 13.2255 88.0018 13.4938C87.9012 13.7452 87.8426 14.0721 87.8258 14.4745C87.8258 14.8601 87.8593 15.2792 87.9264 15.7318C87.9935 16.1845 88.094 16.612 88.2282 17.0143C88.3623 17.3999 88.5215 17.7268 88.706 17.9951C88.8904 18.2465 89.0999 18.3723 89.3346 18.3723H90.3405C90.592 18.3723 90.7764 18.4393 90.8937 18.5735C91.0279 18.7076 91.0949 18.8501 91.0949 19.001C91.0949 19.1518 91.0279 19.2943 90.8937 19.4285C90.7764 19.5626 90.592 19.6296 90.3405 19.6296H89.737C89.5023 19.6296 89.3179 19.6967 89.1837 19.8308C89.0664 19.9649 88.9826 20.1326 88.9323 20.3337C88.882 20.5182 88.8485 20.7193 88.8317 20.9373C88.8317 21.1552 88.8317 21.348 88.8317 21.5157C88.8317 22.203 88.8904 22.8652 89.0077 23.5023C89.1418 24.1393 89.276 24.768 89.4101 25.3883C89.561 25.9918 89.6951 26.5954 89.8124 27.1989C89.9465 27.8024 90.0136 28.4059 90.0136 29.0095C90.0136 29.6633 89.8879 30.1495 89.6364 30.468C89.4017 30.7865 89.0077 30.9458 88.4545 30.9458H85.4117C84.3723 30.9458 83.8526 30.3004 83.8526 29.0095C83.8526 28.4059 83.9113 27.8024 84.0286 27.1989C84.1627 26.5954 84.3052 25.9918 84.4561 25.3883C84.607 24.768 84.7411 24.1393 84.8585 23.5023C84.9926 22.8652 85.0596 22.203 85.0596 21.5157C85.0596 20.9792 85.0177 20.5349 84.9339 20.1829C84.8501 19.814 84.5735 19.6296 84.104 19.6296H83.5508C83.2993 19.6296 83.1065 19.5626 82.9724 19.4285C82.8551 19.2943 82.7964 19.1518 82.7964 19.001C82.7964 18.8501 82.8551 18.7076 82.9724 18.5735C83.1065 18.4393 83.2993 18.3723 83.5508 18.3723H84.104ZM101.503 30.9458C101.453 31.3817 101.403 31.8511 101.352 32.354C101.302 32.8737 101.21 33.3767 101.076 33.8629C100.958 34.3658 100.791 34.8436 100.573 35.2962C100.355 35.7657 100.045 36.1764 99.6424 36.5284C99.24 36.8973 98.7287 37.1823 98.1084 37.3834C97.5049 37.6014 96.7588 37.7104 95.8703 37.7104C95.3338 37.7104 94.898 37.6349 94.5627 37.484C94.2274 37.3331 93.9591 37.132 93.758 36.8805C93.5735 36.629 93.4394 36.344 93.3556 36.0255C93.2885 35.7237 93.255 35.422 93.255 35.1202C93.255 34.9023 93.2885 34.6592 93.3556 34.3909C93.4227 34.1227 93.54 33.8796 93.7077 33.6617C93.8921 33.4437 94.1352 33.2593 94.4369 33.1084C94.7555 32.9576 95.1494 32.8821 95.6188 32.8821C96.1888 32.8821 96.7421 32.8821 97.2785 32.8821C97.8318 32.8821 98.318 32.8402 98.7371 32.7564C99.173 32.6726 99.525 32.5301 99.7932 32.3289C100.061 32.1277 100.196 31.8259 100.196 31.4236C100.196 31.2224 100.137 31.0967 100.02 31.0464C99.919 31.0129 99.7765 30.9961 99.5921 30.9961C98.7874 30.9961 98.1587 30.7782 97.706 30.3423C97.2534 29.8896 96.893 29.3448 96.6247 28.7077C96.3565 28.0707 96.1302 27.4085 95.9457 26.7211C95.7781 26.017 95.5685 25.4051 95.3171 24.8854C95.0991 24.4327 94.8644 23.9885 94.613 23.5526C94.3615 23.0999 94.1268 22.6473 93.9088 22.1946C93.6909 21.742 93.5065 21.2977 93.3556 20.8618C93.2047 20.4092 93.1293 19.9649 93.1293 19.529C93.1293 18.7579 93.4981 18.3723 94.2357 18.3723H97.3037C97.8737 18.3723 98.2593 18.4813 98.4605 18.6992C98.6616 18.9171 98.7622 19.244 98.7622 19.6799C98.7622 19.814 98.7455 20.032 98.7119 20.3337C98.6952 20.6187 98.6868 20.954 98.6868 21.3396C98.6868 21.7252 98.7035 22.1443 98.7371 22.597C98.7706 23.0496 98.846 23.4939 98.9634 23.9298C99.0975 24.4662 99.2735 24.9608 99.4915 25.4135C99.7094 25.8661 99.9274 26.2601 100.145 26.5954C100.363 26.9307 100.564 27.1905 100.749 27.3749C100.95 27.5593 101.093 27.6515 101.176 27.6515C101.26 27.6515 101.403 27.509 101.604 27.224C101.805 26.939 102.015 26.5954 102.233 26.193C102.45 25.7907 102.66 25.3715 102.861 24.9357C103.062 24.4998 103.213 24.1226 103.314 23.804C103.498 23.234 103.599 22.7227 103.616 22.2701C103.632 21.8174 103.607 21.4235 103.54 21.0882C103.49 20.7361 103.423 20.4427 103.339 20.208C103.272 19.9733 103.238 19.7973 103.238 19.6799C103.238 19.244 103.339 18.9171 103.54 18.6992C103.741 18.4813 104.127 18.3723 104.697 18.3723H105.703C106.44 18.3723 106.809 18.7579 106.809 19.529C106.809 19.9649 106.717 20.4092 106.533 20.8618C106.348 21.2977 106.122 21.742 105.854 22.1946C105.602 22.6473 105.326 23.0999 105.024 23.5526C104.739 23.9885 104.487 24.4327 104.269 24.8854C104.001 25.4386 103.716 25.9835 103.414 26.5199C103.113 27.0564 102.828 27.5761 102.559 28.079C102.308 28.582 102.082 29.0765 101.88 29.5627C101.679 30.0321 101.554 30.4932 101.503 30.9458Z" fill="white"/>
<g clip-path="url(#clip0_88_3978)">
<path d="M22.7662 14.949C25.0337 12.8648 33.3309 3.05583 27.1154 0.36899C20.8996 -2.31785 19.4391 10.4464 19.4744 13.526L22.7662 14.949Z" fill="#FFAACB"/>
<path d="M7.51899 14.949C5.25169 12.8648 -3.04574 3.05583 3.16978 0.36899C9.38552 -2.31785 10.846 10.4464 10.8108 13.526L7.51899 14.949Z" fill="#FFAACB"/>
<path d="M6.04932 13.4136C6.63754 14.0828 7.15573 14.6152 7.51897 14.9491L10.8107 13.5259C10.8183 12.8622 10.7563 11.7482 10.5924 10.436C9.14471 10.976 7.81308 11.7764 6.66844 12.8111C6.45306 13.0059 6.24661 13.2069 6.04932 13.4136Z" fill="#FF82B3"/>
<path d="M23.6167 12.8111C22.472 11.7764 21.1404 10.976 19.6929 10.436C19.5288 11.7482 19.4668 12.8622 19.4744 13.5259L22.7661 14.9491C23.1294 14.6152 23.6476 14.0828 24.2358 13.4136C24.0385 13.2069 23.832 13.0059 23.6167 12.8111Z" fill="#FF82B3"/>
<path d="M20.9875 14.1798C21.0526 12.9478 21.2283 11.3053 21.5838 9.69995C22.4203 5.92179 23.6238 4.94309 23.9729 4.73321C24.7334 4.27567 25.9014 4.78105 26.0893 5.64805C26.1754 6.04608 26.2871 7.59309 24.1079 10.791C23.1821 12.1499 22.1061 13.4033 21.2531 14.2947L20.9875 14.1798Z" fill="#EBEBEB"/>
<path d="M9.29753 14.1798C9.23253 12.9478 9.05675 11.3053 8.70129 9.69995C7.86473 5.92179 6.66127 4.94309 6.31223 4.73321C5.55165 4.27567 4.38367 4.78105 4.19598 5.64805C4.1097 6.04608 3.998 7.59309 6.17719 10.791C7.10301 12.1499 8.17922 13.4033 9.03203 14.2947L9.29753 14.1798Z" fill="#EBEBEB"/>
<path d="M9.03212 14.295L9.29762 14.1801C9.25253 13.3255 9.15388 12.2728 8.97902 11.1724C8.38461 11.4971 7.81813 11.8707 7.28552 12.2907C7.89435 13.0563 8.50569 13.7448 9.03212 14.295Z" fill="#D5D4DA"/>
<path d="M21.3062 11.1724C21.1313 12.2728 21.0326 13.3252 20.9875 14.1801L21.2531 14.295C21.7795 13.7445 22.3908 13.0563 22.9994 12.2907C22.4668 11.8707 21.9006 11.4971 21.3062 11.1724Z" fill="#D5D4DA"/>
<path d="M25.4093 20.7176C25.4093 15.5914 20.8127 11.4355 15.1426 11.4355C9.47249 11.4355 4.87585 15.5914 4.87585 20.7176C4.87585 25.8441 9.47249 29.9999 15.1426 29.9999C20.8127 29.9999 25.4093 25.8441 25.4093 20.7176Z" fill="#FFAACB"/>
<path d="M16.6801 20.3286C17.668 20.8717 18.337 21.9223 18.337 23.129C18.337 24.8932 16.9067 26.3235 15.1425 26.3235C13.3783 26.3235 11.948 24.8932 11.948 23.129C11.948 21.9223 12.617 20.8717 13.6049 20.3286H16.6801Z" fill="#EBEBEB"/>
<path d="M19.9388 20.8511C19.6889 20.8511 19.4861 20.6485 19.4861 20.3984V19.4659C19.4861 19.2157 19.6889 19.0132 19.9388 19.0132C20.1888 19.0132 20.3915 19.2157 20.3915 19.4659V20.3984C20.3915 20.6485 20.1888 20.8511 19.9388 20.8511Z" fill="#4B5562"/>
<path d="M10.3463 20.8511C10.0963 20.8511 9.89355 20.6485 9.89355 20.3984V19.4659C9.89355 19.2157 10.0963 19.0132 10.3463 19.0132C10.5962 19.0132 10.799 19.2157 10.799 19.4659V20.3984C10.799 20.6485 10.5962 20.8511 10.3463 20.8511Z" fill="#4B5562"/>
<path d="M10.3786 22.2219H9.10849C8.85855 22.2219 8.65576 22.0193 8.65576 21.7691C8.65576 21.5192 8.85855 21.3164 9.10849 21.3164H10.3786C10.6287 21.3164 10.8313 21.5192 10.8313 21.7691C10.8313 22.0193 10.6287 22.2219 10.3786 22.2219Z" fill="#FF82B3"/>
<path d="M21.1765 22.2219H19.9065C19.6563 22.2219 19.4537 22.0193 19.4537 21.7691C19.4537 21.5192 19.6563 21.3164 19.9065 21.3164H21.1765C21.4267 21.3164 21.6293 21.5192 21.6293 21.7691C21.6293 22.0193 21.4267 22.2219 21.1765 22.2219Z" fill="#FF82B3"/>
<path d="M16.4485 22.3746C15.9779 22.3746 15.5952 21.9919 15.5952 21.5216C15.5952 21.2714 15.3925 21.0688 15.1425 21.0688C14.8926 21.0688 14.6898 21.2714 14.6898 21.5216C14.6898 21.9919 14.3071 22.3746 13.8365 22.3746C13.5866 22.3746 13.3838 22.5774 13.3838 22.8273C13.3838 23.0775 13.5866 23.2801 13.8365 23.2801C14.3542 23.2801 14.8205 23.0551 15.1425 22.698C15.4646 23.0551 15.9308 23.2801 16.4485 23.2801C16.6985 23.2801 16.9012 23.0775 16.9012 22.8273C16.9012 22.5774 16.6985 22.3746 16.4485 22.3746Z" fill="#4B5562"/>
<path d="M16.6801 20.3287C16.5048 21.0147 15.8827 21.5216 15.1425 21.5216C14.4023 21.5216 13.7804 21.0147 13.6049 20.3287C14.0606 20.0774 14.5849 19.9346 15.1425 19.9346C15.7 19.9346 16.2244 20.0774 16.6801 20.3287Z" fill="#FF82B3"/>
<path d="M8.94991 14.7806C8.94991 14.7806 7.47591 19.7349 5.1832 16.0325C2.89049 12.3299 7.98266 13.2184 7.98266 13.2184L8.94991 14.7806Z" fill="#34B5E1"/>
<path d="M10.278 13.9583C10.278 13.9583 15.3704 14.8468 13.0777 11.1442C10.785 7.44179 9.31079 12.3962 9.31079 12.3962L10.278 13.9583Z" fill="#34B5E1"/>
<path d="M8.54712 12.5634L8.47319 12.6092C7.91998 12.9518 7.74924 13.6781 8.09188 14.2313C8.43451 14.7847 9.16075 14.9555 9.71396 14.6128L9.78789 14.5671C10.3411 14.2244 10.5118 13.4982 10.1692 12.945C9.82657 12.3915 9.10033 12.2208 8.54712 12.5634Z" fill="#5BD6FD"/>
</g>
<defs>
<clipPath id="clip0_88_3978">
<rect width="30" height="30" fill="white" transform="translate(0.083252)"/>
</clipPath>
</defs>
</svg>
