<svg width="170" height="25" viewBox="0 0 170 25" fill="none" xmlns="http://www.w3.org/2000/svg">
<path d="M67.5227 8.53409C67.3939 8.05682 67.2045 7.63636 66.9545 7.27273C66.7045 6.90152 66.3977 6.58712 66.0341 6.32955C65.6705 6.07197 65.2538 5.87879 64.7841 5.75C64.3144 5.61364 63.7992 5.54545 63.2386 5.54545C62.1098 5.54545 61.1326 5.81818 60.3068 6.36364C59.4886 6.90909 58.8561 7.70455 58.4091 8.75C57.9621 9.78788 57.7386 11.0492 57.7386 12.5341C57.7386 14.0265 57.9545 15.2992 58.3864 16.3523C58.8182 17.4053 59.4432 18.2083 60.2614 18.7614C61.0795 19.3144 62.072 19.5909 63.2386 19.5909C64.2689 19.5909 65.1402 19.4242 65.8523 19.0909C66.572 18.75 67.1174 18.2689 67.4886 17.6477C67.8598 17.0265 68.0455 16.2955 68.0455 15.4545L69.0909 15.5795H63.4318V11.4773H73.4659V14.5568C73.4659 16.6402 73.0227 18.4242 72.1364 19.9091C71.2576 21.3939 70.0455 22.5341 68.5 23.3295C66.9621 24.125 65.1932 24.5227 63.1932 24.5227C60.9735 24.5227 59.0227 24.0417 57.3409 23.0795C55.6591 22.1174 54.3485 20.7462 53.4091 18.9659C52.4697 17.178 52 15.0568 52 12.6023C52 10.6932 52.2841 9 52.8523 7.52273C53.4205 6.03788 54.2121 4.7803 55.2273 3.75C56.25 2.7197 57.4318 1.93939 58.7727 1.40909C60.1212 0.878787 61.572 0.613636 63.125 0.613636C64.4735 0.613636 65.7273 0.806818 66.8864 1.19318C68.053 1.57955 69.0833 2.125 69.9773 2.82955C70.8788 3.53409 71.6098 4.37121 72.1705 5.34091C72.7311 6.31061 73.0795 7.375 73.2159 8.53409H67.5227Z" fill="white"/>
<path d="M81.6981 0.931818V24.2045H76.1413V0.931818H81.6981Z" fill="white"/>
<path d="M89.5155 24.5C88.4018 24.5 87.4132 24.3144 86.5495 23.9432C85.6935 23.5644 85.0155 22.9962 84.5155 22.2386C84.023 21.4735 83.7768 20.5152 83.7768 19.3636C83.7768 18.3939 83.9473 17.5758 84.2882 16.9091C84.6291 16.2424 85.0988 15.7008 85.6973 15.2841C86.2958 14.8674 86.9852 14.553 87.7655 14.3409C88.5458 14.1212 89.3791 13.9735 90.2655 13.8977C91.2579 13.8068 92.0571 13.7121 92.6632 13.6136C93.2692 13.5076 93.7086 13.3598 93.9814 13.1705C94.2617 12.9735 94.4018 12.697 94.4018 12.3409V12.2841C94.4018 11.7008 94.2011 11.25 93.7995 10.9318C93.398 10.6136 92.8564 10.4545 92.1745 10.4545C91.4397 10.4545 90.8488 10.6136 90.4018 10.9318C89.9549 11.25 89.6708 11.6894 89.5495 12.25L84.4245 12.0682C84.5761 11.0076 84.9662 10.0606 85.595 9.22727C86.2314 8.38636 87.1026 7.72727 88.2086 7.25C89.3223 6.76515 90.6594 6.52273 92.22 6.52273C93.3336 6.52273 94.3602 6.6553 95.2995 6.92045C96.2389 7.17803 97.0571 7.55682 97.7541 8.05682C98.4511 8.54924 98.9889 9.1553 99.3677 9.875C99.7541 10.5947 99.9473 11.4167 99.9473 12.3409V24.2045H94.72V21.7727H94.5836C94.273 22.3636 93.8753 22.8636 93.3905 23.2727C92.9132 23.6818 92.3488 23.9886 91.6973 24.1932C91.0533 24.3977 90.3261 24.5 89.5155 24.5ZM91.2314 20.8636C91.8298 20.8636 92.3677 20.7424 92.845 20.5C93.3298 20.2576 93.7162 19.9242 94.0041 19.5C94.292 19.0682 94.4359 18.5682 94.4359 18V16.3409C94.2768 16.4242 94.0836 16.5 93.8564 16.5682C93.6367 16.6364 93.3942 16.7008 93.1291 16.7614C92.8639 16.822 92.5912 16.875 92.3109 16.9205C92.0306 16.9659 91.7617 17.0076 91.5041 17.0455C90.9814 17.1288 90.5344 17.2576 90.1632 17.4318C89.7995 17.6061 89.5192 17.8333 89.3223 18.1136C89.1329 18.3864 89.0382 18.7121 89.0382 19.0909C89.0382 19.6667 89.2427 20.1061 89.6518 20.4091C90.0685 20.7121 90.595 20.8636 91.2314 20.8636Z" fill="white"/>
<path d="M103.228 24.2045V6.75H106.489V9.59091H106.705C107.069 8.62879 107.663 7.87879 108.489 7.34091C109.315 6.79546 110.303 6.52273 111.455 6.52273C112.622 6.52273 113.599 6.79546 114.387 7.34091C115.182 7.88636 115.769 8.63636 116.148 9.59091H116.33C116.747 8.65909 117.41 7.91667 118.319 7.36364C119.228 6.80303 120.311 6.52273 121.569 6.52273C123.152 6.52273 124.444 7.01894 125.444 8.01136C126.451 9.00379 126.955 10.5 126.955 12.5V24.2045H123.557V12.8182C123.557 11.6364 123.235 10.7803 122.591 10.25C121.947 9.7197 121.178 9.45455 120.285 9.45455C119.178 9.45455 118.319 9.79545 117.705 10.4773C117.091 11.1515 116.785 12.0189 116.785 13.0795V24.2045H113.398V12.6023C113.398 11.6553 113.103 10.8939 112.512 10.3182C111.921 9.74242 111.152 9.45455 110.205 9.45455C109.561 9.45455 108.966 9.625 108.421 9.96591C107.883 10.2992 107.447 10.7652 107.114 11.3636C106.788 11.9621 106.625 12.6553 106.625 13.4432V24.2045H103.228Z" fill="white"/>
<path d="M130.869 24.2045V6.75H134.267V24.2045H130.869ZM132.585 4.05682C131.994 4.05682 131.486 3.85985 131.062 3.46591C130.645 3.06439 130.437 2.58712 130.437 2.03409C130.437 1.47348 130.645 0.996212 131.062 0.602272C131.486 0.200757 131.994 0 132.585 0C133.176 0 133.68 0.200757 134.096 0.602272C134.52 0.996212 134.733 1.47348 134.733 2.03409C134.733 2.58712 134.52 3.06439 134.096 3.46591C133.68 3.85985 133.176 4.05682 132.585 4.05682Z" fill="white"/>
<path d="M145.55 24.5568C143.861 24.5568 142.406 24.1742 141.186 23.4091C139.974 22.6364 139.042 21.572 138.391 20.2159C137.739 18.8598 137.414 17.3068 137.414 15.5568C137.414 13.7841 137.747 12.2197 138.414 10.8636C139.08 9.5 140.02 8.43561 141.232 7.67045C142.444 6.9053 143.872 6.52273 145.516 6.52273C146.842 6.52273 148.023 6.76894 149.061 7.26136C150.099 7.74621 150.936 8.42803 151.573 9.30682C152.217 10.1856 152.599 11.2121 152.72 12.3864H149.414C149.232 11.5682 148.815 10.8636 148.164 10.2727C147.52 9.68182 146.656 9.38636 145.573 9.38636C144.626 9.38636 143.796 9.63636 143.084 10.1364C142.38 10.6288 141.83 11.3333 141.436 12.25C141.042 13.1591 140.845 14.2348 140.845 15.4773C140.845 16.75 141.039 17.8485 141.425 18.7727C141.811 19.697 142.357 20.4129 143.061 20.9205C143.773 21.428 144.611 21.6818 145.573 21.6818C146.217 21.6818 146.8 21.5644 147.323 21.3295C147.853 21.0871 148.296 20.7424 148.652 20.2955C149.016 19.8485 149.27 19.3106 149.414 18.6818H152.72C152.599 19.8106 152.232 20.8182 151.618 21.7045C151.005 22.5909 150.183 23.2879 149.152 23.7955C148.13 24.303 146.929 24.5568 145.55 24.5568Z" fill="white"/>
<path d="M168.794 11.0114L165.714 11.5568C165.585 11.1629 165.381 10.7879 165.1 10.4318C164.828 10.0758 164.456 9.78409 163.987 9.55682C163.517 9.32955 162.93 9.21591 162.225 9.21591C161.263 9.21591 160.46 9.43182 159.816 9.86364C159.172 10.2879 158.85 10.8371 158.85 11.5114C158.85 12.0947 159.066 12.5644 159.498 12.9205C159.93 13.2765 160.627 13.5682 161.589 13.7955L164.362 14.4318C165.968 14.803 167.165 15.375 167.953 16.1477C168.741 16.9205 169.134 17.9242 169.134 19.1591C169.134 20.2045 168.831 21.1364 168.225 21.9545C167.627 22.7652 166.79 23.4015 165.714 23.8636C164.646 24.3258 163.407 24.5568 161.998 24.5568C160.044 24.5568 158.449 24.1402 157.214 23.3068C155.979 22.4659 155.222 21.2727 154.941 19.7273L158.225 19.2273C158.43 20.0833 158.85 20.7311 159.487 21.1705C160.123 21.6023 160.953 21.8182 161.975 21.8182C163.089 21.8182 163.979 21.5871 164.646 21.125C165.312 20.6553 165.646 20.0833 165.646 19.4091C165.646 18.8636 165.441 18.4053 165.032 18.0341C164.631 17.6629 164.013 17.3826 163.18 17.1932L160.225 16.5455C158.597 16.1742 157.392 15.5833 156.612 14.7727C155.839 13.9621 155.453 12.9356 155.453 11.6932C155.453 10.6629 155.74 9.76136 156.316 8.98864C156.892 8.21591 157.687 7.61364 158.703 7.18182C159.718 6.74242 160.881 6.52273 162.191 6.52273C164.078 6.52273 165.562 6.93182 166.646 7.75C167.729 8.56061 168.445 9.64773 168.794 11.0114Z" fill="white"/>
<path d="M33.5287 12.937H29.9203H12.1258H5.61802H2.26562C1.64801 12.937 1.04576 13.1725 0.618517 13.6184C0.115682 14.1433 -0.0955224 14.8669 0.0402897 15.572C0.977819 20.4391 5.26124 23.9717 10.2253 23.9717C12.2571 23.9717 14.0679 23.7081 15.7261 23.2709C16.7563 22.9993 17.7494 22.6052 18.6964 22.1168C20.937 20.9614 23.0759 19.4771 25.2711 17.9537C27.8966 16.1316 30.5696 14.2767 33.5287 12.937Z" fill="#EF2853"/>
<path d="M10.2793 10.6665C10.4083 10.8494 10.613 10.947 10.821 10.947C10.9529 10.947 11.0861 10.9078 11.202 10.826L12.1257 10.1745V11.6129H29.9203V8.89728C29.9203 3.99131 25.929 0 21.023 0C16.5303 0 12.8052 3.34747 12.2095 7.67913L11.202 6.96859C10.9031 6.75783 10.4901 6.82924 10.2793 7.12806C10.0685 7.42693 10.1399 7.84004 10.4388 8.0508L11.639 8.89728L10.4388 9.74375C10.1399 9.95451 10.0685 10.3676 10.2793 10.6665ZM13.828 8.14844H28.2179C28.5836 8.14844 28.8801 8.44488 28.8801 8.81059C28.8801 9.1763 28.5836 9.47274 28.2179 9.47274H13.828C13.4624 9.47274 13.1659 9.1763 13.1659 8.81059C13.1659 8.44488 13.4624 8.14844 13.828 8.14844Z" fill="#EF2853"/>
<path d="M39.3566 12.937C39.147 12.937 38.9404 12.9394 38.7354 12.9442C38.7036 12.9394 38.671 12.937 38.6378 12.937C37.7305 12.937 36.8289 13.0873 35.9727 13.3876C32.3356 14.6634 29.1461 16.8764 26.0261 19.0417C24.2081 20.3033 22.3662 21.5813 20.4308 22.6749C22.3234 23.2972 25.1954 24 28.5175 23.9998C28.8989 23.9998 29.287 23.9906 29.6794 23.9708C33.9351 23.7569 37.0256 21.7647 38.489 20.5962C40.6891 18.8396 42.0851 16.6831 42.0453 15.1022C42.0113 13.7464 41.0061 12.937 39.3566 12.937Z" fill="#EF2853"/>
</svg>
