<svg width="170" height="25" viewBox="0 0 170 25" fill="none" xmlns="http://www.w3.org/2000/svg">
<path d="M68.0167 8.53409C67.888 8.05682 67.6986 7.63636 67.4486 7.27273C67.1986 6.90152 66.8917 6.58712 66.5281 6.32955C66.1645 6.07197 65.7478 5.87879 65.2781 5.75C64.8084 5.61364 64.2933 5.54545 63.7327 5.54545C62.6039 5.54545 61.6266 5.81818 60.8008 6.36364C59.9827 6.90909 59.3501 7.70455 58.9031 8.75C58.4561 9.78788 58.2327 11.0492 58.2327 12.5341C58.2327 14.0265 58.4486 15.2992 58.8804 16.3523C59.3122 17.4053 59.9372 18.2083 60.7554 18.7614C61.5736 19.3144 62.566 19.5909 63.7327 19.5909C64.763 19.5909 65.6342 19.4242 66.3463 19.0909C67.066 18.75 67.6114 18.2689 67.9827 17.6477C68.3539 17.0265 68.5395 16.2955 68.5395 15.4545L69.5849 15.5795H63.9258V11.4773H73.9599V14.5568C73.9599 16.6402 73.5167 18.4242 72.6304 19.9091C71.7516 21.3939 70.5395 22.5341 68.994 23.3295C67.4561 24.125 65.6872 24.5227 63.6872 24.5227C61.4675 24.5227 59.5167 24.0417 57.8349 23.0795C56.1531 22.1174 54.8425 20.7462 53.9031 18.9659C52.9637 17.178 52.494 15.0568 52.494 12.6023C52.494 10.6932 52.7781 9 53.3463 7.52273C53.9145 6.03788 54.7061 4.7803 55.7213 3.75C56.744 2.7197 57.9258 1.93939 59.2667 1.40909C60.6152 0.878787 62.066 0.613636 63.619 0.613636C64.9675 0.613636 66.2213 0.806818 67.3804 1.19318C68.547 1.57955 69.5774 2.125 70.4713 2.82955C71.3728 3.53409 72.1039 4.37121 72.6645 5.34091C73.2251 6.31061 73.5736 7.375 73.7099 8.53409H68.0167Z" fill="black"/>
<path d="M82.1921 0.931818V24.2045H76.6353V0.931818H82.1921Z" fill="black"/>
<path d="M90.0095 24.5C88.8958 24.5 87.9072 24.3144 87.0436 23.9432C86.1875 23.5644 85.5095 22.9962 85.0095 22.2386C84.5171 21.4735 84.2708 20.5152 84.2708 19.3636C84.2708 18.3939 84.4413 17.5758 84.7822 16.9091C85.1231 16.2424 85.5928 15.7008 86.1913 15.2841C86.7898 14.8674 87.4792 14.553 88.2595 14.3409C89.0398 14.1212 89.8731 13.9735 90.7595 13.8977C91.7519 13.8068 92.5511 13.7121 93.1572 13.6136C93.7633 13.5076 94.2027 13.3598 94.4754 13.1705C94.7557 12.9735 94.8958 12.697 94.8958 12.3409V12.2841C94.8958 11.7008 94.6951 11.25 94.2936 10.9318C93.892 10.6136 93.3504 10.4545 92.6686 10.4545C91.9337 10.4545 91.3428 10.6136 90.8958 10.9318C90.4489 11.25 90.1648 11.6894 90.0436 12.25L84.9186 12.0682C85.0701 11.0076 85.4602 10.0606 86.089 9.22727C86.7254 8.38636 87.5966 7.72727 88.7027 7.25C89.8163 6.76515 91.1534 6.52273 92.714 6.52273C93.8277 6.52273 94.8542 6.6553 95.7936 6.92045C96.733 7.17803 97.5511 7.55682 98.2481 8.05682C98.9451 8.54924 99.483 9.1553 99.8617 9.875C100.248 10.5947 100.441 11.4167 100.441 12.3409V24.2045H95.214V21.7727H95.0777C94.7671 22.3636 94.3693 22.8636 93.8845 23.2727C93.4072 23.6818 92.8428 23.9886 92.1913 24.1932C91.5474 24.3977 90.8201 24.5 90.0095 24.5ZM91.7254 20.8636C92.3239 20.8636 92.8617 20.7424 93.339 20.5C93.8239 20.2576 94.2102 19.9242 94.4981 19.5C94.786 19.0682 94.9299 18.5682 94.9299 18V16.3409C94.7708 16.4242 94.5777 16.5 94.3504 16.5682C94.1307 16.6364 93.8883 16.7008 93.6231 16.7614C93.358 16.822 93.0852 16.875 92.8049 16.9205C92.5246 16.9659 92.2557 17.0076 91.9981 17.0455C91.4754 17.1288 91.0284 17.2576 90.6572 17.4318C90.2936 17.6061 90.0133 17.8333 89.8163 18.1136C89.6269 18.3864 89.5322 18.7121 89.5322 19.0909C89.5322 19.6667 89.7367 20.1061 90.1458 20.4091C90.5625 20.7121 91.089 20.8636 91.7254 20.8636Z" fill="black"/>
<path d="M103.722 24.2045V6.75H106.983V9.59091H107.199C107.563 8.62879 108.157 7.87879 108.983 7.34091C109.809 6.79546 110.798 6.52273 111.949 6.52273C113.116 6.52273 114.093 6.79546 114.881 7.34091C115.676 7.88636 116.263 8.63636 116.642 9.59091H116.824C117.241 8.65909 117.904 7.91667 118.813 7.36364C119.722 6.80303 120.805 6.52273 122.063 6.52273C123.646 6.52273 124.938 7.01894 125.938 8.01136C126.945 9.00379 127.449 10.5 127.449 12.5V24.2045H124.051V12.8182C124.051 11.6364 123.729 10.7803 123.085 10.25C122.441 9.7197 121.673 9.45455 120.779 9.45455C119.673 9.45455 118.813 9.79545 118.199 10.4773C117.585 11.1515 117.279 12.0189 117.279 13.0795V24.2045H113.892V12.6023C113.892 11.6553 113.597 10.8939 113.006 10.3182C112.415 9.74242 111.646 9.45455 110.699 9.45455C110.055 9.45455 109.46 9.625 108.915 9.96591C108.377 10.2992 107.941 10.7652 107.608 11.3636C107.282 11.9621 107.119 12.6553 107.119 13.4432V24.2045H103.722Z" fill="black"/>
<path d="M131.363 24.2045V6.75H134.761V24.2045H131.363ZM133.079 4.05682C132.488 4.05682 131.98 3.85985 131.556 3.46591C131.14 3.06439 130.931 2.58712 130.931 2.03409C130.931 1.47348 131.14 0.996212 131.556 0.602272C131.98 0.200757 132.488 0 133.079 0C133.67 0 134.174 0.200757 134.59 0.602272C135.015 0.996212 135.227 1.47348 135.227 2.03409C135.227 2.58712 135.015 3.06439 134.59 3.46591C134.174 3.85985 133.67 4.05682 133.079 4.05682Z" fill="black"/>
<path d="M146.044 24.5568C144.355 24.5568 142.9 24.1742 141.68 23.4091C140.468 22.6364 139.536 21.572 138.885 20.2159C138.233 18.8598 137.908 17.3068 137.908 15.5568C137.908 13.7841 138.241 12.2197 138.908 10.8636C139.574 9.5 140.514 8.43561 141.726 7.67045C142.938 6.9053 144.366 6.52273 146.01 6.52273C147.336 6.52273 148.518 6.76894 149.555 7.26136C150.593 7.74621 151.43 8.42803 152.067 9.30682C152.711 10.1856 153.093 11.2121 153.214 12.3864H149.908C149.726 11.5682 149.309 10.8636 148.658 10.2727C148.014 9.68182 147.15 9.38636 146.067 9.38636C145.12 9.38636 144.29 9.63636 143.578 10.1364C142.874 10.6288 142.324 11.3333 141.93 12.25C141.536 13.1591 141.339 14.2348 141.339 15.4773C141.339 16.75 141.533 17.8485 141.919 18.7727C142.305 19.697 142.851 20.4129 143.555 20.9205C144.268 21.428 145.105 21.6818 146.067 21.6818C146.711 21.6818 147.294 21.5644 147.817 21.3295C148.347 21.0871 148.79 20.7424 149.146 20.2955C149.51 19.8485 149.764 19.3106 149.908 18.6818H153.214C153.093 19.8106 152.726 20.8182 152.112 21.7045C151.499 22.5909 150.677 23.2879 149.646 23.7955C148.624 24.303 147.423 24.5568 146.044 24.5568Z" fill="black"/>
<path d="M169.288 11.0114L166.208 11.5568C166.079 11.1629 165.875 10.7879 165.594 10.4318C165.322 10.0758 164.95 9.78409 164.481 9.55682C164.011 9.32955 163.424 9.21591 162.719 9.21591C161.757 9.21591 160.954 9.43182 160.31 9.86364C159.666 10.2879 159.344 10.8371 159.344 11.5114C159.344 12.0947 159.56 12.5644 159.992 12.9205C160.424 13.2765 161.121 13.5682 162.083 13.7955L164.856 14.4318C166.462 14.803 167.659 15.375 168.447 16.1477C169.235 16.9205 169.628 17.9242 169.628 19.1591C169.628 20.2045 169.325 21.1364 168.719 21.9545C168.121 22.7652 167.284 23.4015 166.208 23.8636C165.14 24.3258 163.901 24.5568 162.492 24.5568C160.538 24.5568 158.943 24.1402 157.708 23.3068C156.473 22.4659 155.716 21.2727 155.435 19.7273L158.719 19.2273C158.924 20.0833 159.344 20.7311 159.981 21.1705C160.617 21.6023 161.447 21.8182 162.469 21.8182C163.583 21.8182 164.473 21.5871 165.14 21.125C165.806 20.6553 166.14 20.0833 166.14 19.4091C166.14 18.8636 165.935 18.4053 165.526 18.0341C165.125 17.6629 164.507 17.3826 163.674 17.1932L160.719 16.5455C159.091 16.1742 157.886 15.5833 157.106 14.7727C156.333 13.9621 155.947 12.9356 155.947 11.6932C155.947 10.6629 156.235 9.76136 156.81 8.98864C157.386 8.21591 158.181 7.61364 159.197 7.18182C160.212 6.74242 161.375 6.52273 162.685 6.52273C164.572 6.52273 166.056 6.93182 167.14 7.75C168.223 8.56061 168.939 9.64773 169.288 11.0114Z" fill="black"/>
<path d="M33.5287 12.937H29.9203H12.1258H5.61802H2.26562C1.64801 12.937 1.04576 13.1725 0.618517 13.6184C0.115682 14.1433 -0.0955224 14.8669 0.0402897 15.572C0.977819 20.4391 5.26124 23.9717 10.2253 23.9717C12.2571 23.9717 14.0679 23.7081 15.7261 23.2709C16.7563 22.9993 17.7494 22.6052 18.6964 22.1168C20.937 20.9614 23.0759 19.4771 25.2711 17.9537C27.8966 16.1316 30.5696 14.2767 33.5287 12.937Z" fill="#EF2853"/>
<path d="M10.2793 10.6665C10.4083 10.8494 10.613 10.947 10.821 10.947C10.9529 10.947 11.0861 10.9078 11.202 10.826L12.1257 10.1745V11.6129H29.9203V8.89728C29.9203 3.99131 25.929 0 21.023 0C16.5303 0 12.8052 3.34747 12.2095 7.67913L11.202 6.96859C10.9031 6.75783 10.4901 6.82924 10.2793 7.12806C10.0685 7.42693 10.1399 7.84004 10.4388 8.0508L11.639 8.89728L10.4388 9.74375C10.1399 9.95451 10.0685 10.3676 10.2793 10.6665ZM13.828 8.14844H28.2179C28.5836 8.14844 28.8801 8.44488 28.8801 8.81059C28.8801 9.1763 28.5836 9.47274 28.2179 9.47274H13.828C13.4624 9.47274 13.1659 9.1763 13.1659 8.81059C13.1659 8.44488 13.4624 8.14844 13.828 8.14844Z" fill="#EF2853"/>
<path d="M39.3566 12.937C39.147 12.937 38.9404 12.9394 38.7354 12.9442C38.7036 12.9394 38.671 12.937 38.6378 12.937C37.7305 12.937 36.8289 13.0873 35.9727 13.3876C32.3356 14.6634 29.1461 16.8764 26.0261 19.0417C24.2081 20.3033 22.3662 21.5813 20.4308 22.6749C22.3234 23.2972 25.1954 24 28.5175 23.9998C28.8989 23.9998 29.287 23.9906 29.6794 23.9708C33.9351 23.7569 37.0256 21.7647 38.489 20.5962C40.6891 18.8396 42.0851 16.6831 42.0453 15.1022C42.0113 13.7464 41.0061 12.937 39.3566 12.937Z" fill="#EF2853"/>
</svg>
