<svg width="68" height="56" viewBox="0 0 68 56" fill="none" xmlns="http://www.w3.org/2000/svg">
<path d="M14.8412 41.5924C14.2789 41.1213 13.4413 41.1954 12.9703 41.7578L9.64934 45.7228L8.44911 44.7058C7.88944 44.2317 7.05152 44.301 6.57725 44.8607C6.10311 45.4203 6.17244 46.2584 6.73211 46.7325L8.95141 48.6128C9.1922 48.8168 9.49673 48.9275 9.80991 48.9275C9.84763 48.9275 9.88534 48.9259 9.9232 48.9226C10.2754 48.8925 10.6012 48.7233 10.8282 48.4522L15.0069 43.4634C15.4775 42.901 15.4034 42.0635 14.8412 41.5924Z" fill="#9F86D9"/>
<path d="M65.1873 21.1084H63.2785C61.6797 21.0345 60.394 19.6728 58.9063 18.0971C57.9122 17.0443 56.8479 15.917 55.5657 15.0815V3.72812C55.5657 1.72836 53.9387 0.10141 51.9391 0.10141H8.61913C6.61938 0.10141 4.99255 1.72836 4.99255 3.72812V12.9411C4.99255 13.6746 5.58716 14.2692 6.32068 14.2692C7.0542 14.2692 7.6488 13.6746 7.6488 12.9411V3.72812C7.6488 3.20218 8.0932 2.75766 8.61913 2.75766H23.316V14.5085C23.316 14.9913 23.5781 15.4361 24.0003 15.6702C24.2008 15.7814 24.4226 15.8366 24.644 15.8366C24.8888 15.8366 25.133 15.769 25.3481 15.6348L30.2807 12.5518L35.2098 15.6346C35.6193 15.8906 36.1352 15.9044 36.5577 15.6704C36.9802 15.4363 37.2422 14.9916 37.2422 14.5086V2.75766H51.9392C52.4652 2.75766 52.9096 3.20205 52.9096 3.72812V13.9555C52.4775 13.865 52.024 13.8107 51.5444 13.8022C51.5366 13.8021 51.5289 13.8021 51.521 13.8021H48.1563H45.543H44.0378C44.0309 13.8021 44.0242 13.8021 44.0173 13.8022C42.4162 13.8271 41.5936 14.5529 41.1853 15.1573C40.5516 16.0955 40.4929 17.3661 41.0194 18.7337C41.142 19.053 41.2914 19.355 41.4635 19.6388H31.3925C29.2287 19.6388 27.4683 21.3992 27.4683 23.563C27.4683 24.0079 27.5427 24.4359 27.6793 24.8348H27.3268C25.1631 24.8348 23.4026 26.5952 23.4026 28.7592C23.4026 30.9231 25.1631 32.6835 27.3268 32.6835H27.6784C27.5423 33.0814 27.4681 33.508 27.4681 33.9516C27.4681 36.0478 29.1169 37.7656 31.1844 37.8742C31.0469 38.2737 30.9723 38.702 30.9723 39.1478C30.9723 41.3117 32.7327 43.0721 34.8965 43.0721H51.3512C51.9179 43.0721 52.4337 43.0028 52.9092 42.884V47.0456C52.9092 47.5737 52.4648 48.0196 51.9389 48.0196H21.1755C21.4361 47.0918 21.5784 46.115 21.5784 45.1049C21.5784 39.1555 16.7384 34.3152 10.789 34.3152C9.69691 34.3152 8.64264 34.4797 7.64841 34.7829V24.8818C7.64841 24.1483 7.0538 23.5537 6.32028 23.5537C5.58676 23.5537 4.99216 24.1483 4.99216 24.8818V36.0119C1.99365 37.9308 0 41.2884 0 45.1051C0 51.0567 4.84009 55.8986 10.7894 55.8986C14.7025 55.8986 18.1353 53.8035 20.0271 50.676H51.9392C53.9389 50.676 55.5658 49.0475 55.5658 47.0457V41.5774C55.8591 41.3679 56.1394 41.1528 56.4113 40.9432C57.5842 40.0395 58.597 39.2589 60.2099 39.2589H65.1874C66.7383 39.2589 68.0001 37.9988 68.0001 36.4499V23.9212C68 22.3701 66.7383 21.1084 65.1873 21.1084ZM34.586 12.1114L30.9853 9.85928C30.5546 9.59007 30.0081 9.58993 29.5771 9.85915L25.9723 12.1122V2.75766H34.586V12.1114ZM10.7894 53.2424C6.30474 53.2424 2.65625 49.592 2.65625 45.1051C2.65625 40.6202 6.30474 36.9716 10.7894 36.9716C15.2741 36.9716 18.9226 40.6202 18.9226 45.1051C18.9226 49.592 15.2741 53.2424 10.7894 53.2424ZM65.3438 36.4499C65.3438 36.5313 65.2707 36.6027 65.1873 36.6027H60.2097C57.692 36.6027 56.1502 37.7908 54.7898 38.8392C53.6467 39.7202 52.7438 40.416 51.3513 40.416H34.8968C34.1976 40.416 33.6288 39.8471 33.6288 39.1479C33.6288 38.4486 34.1976 37.8798 34.8968 37.8798H39.3053C40.0389 37.8798 40.6335 37.2852 40.6335 36.5517C40.6335 35.8181 40.0389 35.2235 39.3053 35.2235H31.3926C30.6934 35.2235 30.1247 34.6531 30.1247 33.9517C30.1247 33.2525 30.6935 32.6836 31.3926 32.6836H39.3053C40.0389 32.6836 40.6335 32.089 40.6335 31.3555C40.6335 30.622 40.0389 30.0274 39.3053 30.0274H27.327C26.6278 30.0274 26.059 29.4586 26.059 28.7593C26.059 28.06 26.6278 27.4912 27.327 27.4912H39.3053C40.0389 27.4912 40.6335 26.8966 40.6335 26.1631C40.6335 25.4296 40.0389 24.835 39.3053 24.835H31.3926C30.6934 24.835 30.1247 24.2644 30.1247 23.5631C30.1247 22.8639 30.6935 22.2952 31.3926 22.2952H46.212H49.0944H51.0199C51.7534 22.2952 52.348 21.7006 52.348 20.9671C52.348 20.2335 51.7534 19.6389 51.0199 19.6389H49.0944H46.212C44.9971 19.6389 43.9324 18.9099 43.4989 17.7807C43.2463 17.1244 43.3151 16.7501 43.3868 16.6439C43.4588 16.5374 43.7182 16.4647 44.0491 16.4585H48.1563H51.5088C53.7484 16.5032 55.3159 18.1634 56.9752 19.9208C58.7111 21.7593 60.5059 23.6604 63.1999 23.7637C63.2168 23.7643 63.2338 23.7646 63.2508 23.7646H65.1876C65.2723 23.7646 65.344 23.8363 65.344 23.9211V36.4499H65.3438Z" fill="#9F86D9"/>
<path d="M6.32068 20.2415C7.0542 20.2415 7.6488 19.6432 7.6488 18.9096C7.6488 18.1761 7.0542 17.5815 6.32068 17.5815C5.58716 17.5815 4.99255 18.1761 4.99255 18.9096V18.9172C4.99255 19.6506 5.58716 20.2415 6.32068 20.2415Z" fill="#9F86D9"/>
</svg>
