<svg width="68" height="68" viewBox="0 0 68 68" fill="none" xmlns="http://www.w3.org/2000/svg">
<g clip-path="url(#clip0_24_15739)">
<path d="M13.6799 34.0001C13.6799 45.2046 22.7955 54.3201 33.9999 54.3201C45.2043 54.3201 54.3199 45.2046 54.3199 34.0001C54.3199 22.7955 45.2045 13.6799 33.9999 13.6799C22.7954 13.6799 13.6799 22.7955 13.6799 34.0001ZM51.6638 34.0001C51.6638 43.7399 43.7399 51.6638 34.0001 51.6638C24.2602 51.6638 16.3362 43.7399 16.3362 34.0001C16.3362 24.2602 24.2601 16.3362 33.9999 16.3362C43.7398 16.3362 51.6638 24.2602 51.6638 34.0001Z" fill="#9F86D9"/>
<path d="M67.3199 29.4805C67.8744 28.8821 68.1104 28.0469 67.9511 27.2466C67.792 26.4464 67.2544 25.7653 66.513 25.4246C63.3734 23.982 61.854 20.3138 63.0537 17.0739C63.3373 16.3087 63.2358 15.4469 62.7825 14.7685C62.3292 14.0899 61.5718 13.6664 60.7564 13.6353C57.3038 13.5038 54.4962 10.6964 54.3648 7.24387C54.3339 6.42838 53.9102 5.67094 53.2318 5.21764C52.5532 4.76421 51.6911 4.66274 50.9264 4.9463C47.6864 6.14629 44.0182 4.62675 42.5755 1.48727C42.2349 0.745768 41.5537 0.208134 40.7533 0.0488889C39.9528 -0.110356 39.118 0.125921 38.5195 0.680423C35.9853 3.02886 32.015 3.02899 29.4805 0.680423C28.8819 0.125789 28.0464 -0.110356 27.2467 0.0490217C26.4464 0.208267 25.7653 0.746034 25.4245 1.48741C23.982 4.62675 20.314 6.14642 17.0736 4.94644C16.3086 4.66314 15.4464 4.76461 14.7682 5.21778C14.0898 5.67121 13.6661 6.42865 13.6352 7.24387C13.5038 10.6965 10.6963 13.504 7.2436 13.6354C6.42825 13.6664 5.67081 14.0901 5.21751 14.7686C4.76421 15.447 4.66274 16.3089 4.94617 17.0739C6.14602 20.314 4.62662 23.9821 1.48701 25.4248C0.745634 25.7654 0.208 26.4465 0.0488874 27.2467C-0.110358 28.0469 0.125654 28.8821 0.680289 29.4807C3.02885 32.015 3.02885 35.9853 0.680156 38.5196C0.125654 39.1181 -0.110358 39.9532 0.0488874 40.7536C0.208 41.5538 0.745634 42.2349 1.48701 42.5755C4.62662 44.0182 6.14602 47.6864 4.9463 50.9263C4.66274 51.6914 4.76421 52.5532 5.21751 53.2317C5.67081 53.9102 6.42825 54.3338 7.2436 54.3648C10.6963 54.4963 13.5038 57.3038 13.6352 60.7563C13.6661 61.5718 14.0898 62.3292 14.7682 62.7825C15.4466 63.2358 16.3086 63.3373 17.0736 63.0539C20.3138 61.8539 23.9819 63.3734 25.4245 66.5129C25.7652 67.2544 26.4464 67.792 27.2467 67.9513C28.0472 68.1105 28.8822 67.8742 29.4805 67.3197C32.0148 64.9713 35.985 64.9712 38.5195 67.3197C38.9951 67.7604 39.6199 68 40.258 67.9999C40.423 67.9999 40.589 67.9838 40.7533 67.9511C41.5537 67.7919 42.2347 67.2541 42.5755 66.5127C44.018 63.3734 47.6858 61.8537 50.9264 63.0537C51.6914 63.3371 52.5535 63.2355 53.2318 62.7824C53.9102 62.3289 54.3339 61.5715 54.3648 60.7563C54.4962 57.3036 57.3038 54.4962 60.7564 54.3647C61.5718 54.3338 62.3292 53.9101 62.7825 53.2315C63.2358 52.5531 63.3373 51.6913 63.0539 50.9263C61.854 47.6861 63.3734 44.018 66.513 42.5754C67.2544 42.2347 67.792 41.5537 67.9511 40.7534C68.1104 39.9532 67.8744 39.1181 67.3197 38.5195C64.9713 35.9851 64.9713 32.0149 67.3199 29.4805ZM65.2769 40.2214C63.1997 41.2137 61.5747 42.9258 60.6921 45.0562C59.8096 47.1867 59.748 49.5463 60.5151 51.7168C58.2162 51.8386 56.06 52.7986 54.4293 54.4293C52.7987 56.0598 51.8387 58.2163 51.7169 60.5151C49.5462 59.748 47.1867 59.8095 45.0562 60.6921C42.9258 61.5747 41.2136 63.1996 40.2214 65.2768C38.5098 63.7374 36.3061 62.8914 34.0001 62.8914C31.694 62.8914 29.4903 63.7376 27.7788 65.2768C26.7865 63.1996 25.0744 61.5746 22.9439 60.6921C21.8014 60.2191 20.5935 59.9818 19.3838 59.9818C18.3375 59.9818 17.2898 60.1593 16.2831 60.5152C16.1613 58.2165 15.2013 56.06 13.5708 54.4294C11.9401 52.7987 9.78368 51.8388 7.48492 51.7169C8.25206 49.5465 8.19044 47.1869 7.30788 45.0564C6.42533 42.9258 4.80034 41.2136 2.72311 40.2215C4.26257 38.5099 5.1086 36.3063 5.1086 34.0002C5.1086 31.6941 4.26244 29.4903 2.72311 27.7789C4.80034 26.7866 6.42533 25.0745 7.30788 22.944C8.19044 20.8136 8.25206 18.454 7.48492 16.2835C9.78382 16.1617 11.9401 15.2017 13.5708 13.571C15.2013 11.9401 16.1613 9.78368 16.2831 7.48479C18.4537 8.25193 20.813 8.1903 22.9438 7.30775C25.0743 6.4252 26.7864 4.80034 27.7786 2.72312C29.4902 4.26244 31.6939 5.10847 33.9999 5.10847C36.306 5.10847 38.5097 4.26244 40.2213 2.72312C41.2135 4.80034 42.9256 6.42533 45.0561 7.30775C47.1867 8.19017 49.5462 8.25193 51.7168 7.48479C51.8386 9.78355 52.7986 11.9401 54.4291 13.5706C56.0598 15.2013 58.2162 16.1612 60.515 16.2831C59.7478 18.4536 59.8095 20.8132 60.692 22.9436C61.5746 25.0743 63.1995 26.7864 65.2768 27.7785C63.7373 29.4901 62.8913 31.6937 62.8913 33.9998C62.8913 36.3059 63.7376 38.5098 65.2769 40.2214Z" fill="#9F86D9"/>
<path d="M40.2555 9.13647C39.5444 8.95823 38.8227 9.39001 38.6442 10.1016C38.4657 10.8131 38.8977 11.5346 39.6093 11.7131C44.4851 12.936 48.898 15.7949 52.035 19.7628C55.2677 23.852 56.9763 28.775 56.9763 34.0001C56.9763 46.6693 46.6693 56.9764 34 56.9764C21.3308 56.9764 11.0236 46.6691 11.0236 34.0001C11.0236 28.7767 12.7313 23.8549 15.9622 19.7664C19.0972 15.7993 23.5078 12.9402 28.3816 11.7155C29.0928 11.5367 29.5247 10.8151 29.3459 10.1036C29.1672 9.39227 28.4463 8.96075 27.7341 9.13926C22.2953 10.5059 17.3745 13.6952 13.8782 18.1195C10.2729 22.6815 8.36731 28.173 8.36731 34.0001C8.36731 48.134 19.866 59.6327 33.9999 59.6327C48.1338 59.6327 59.6325 48.134 59.6325 34.0001C59.6325 28.1711 57.7258 22.6783 54.1186 18.1154C50.6202 13.6902 45.6969 10.5014 40.2555 9.13647Z" fill="#9F86D9"/>
<path d="M32.8089 21.1752L29.404 28.0741L21.7908 29.1805C21.2904 29.2531 20.8749 29.6036 20.7186 30.0844C20.5624 30.5652 20.6927 31.093 21.0546 31.4459L26.5636 36.816L25.2631 44.3987C25.1776 44.8968 25.3825 45.4005 25.7916 45.6977C26.2007 45.9948 26.7429 46.0341 27.1903 45.7988L33.9998 42.2188L40.8094 45.7988C41.0037 45.9011 41.2159 45.9514 41.4272 45.9514C41.7025 45.9514 41.9767 45.8659 42.208 45.6977C42.617 45.4006 42.8219 44.897 42.7365 44.3987L41.436 36.816L46.945 31.4459C47.3071 31.093 47.4372 30.5652 47.281 30.0844C47.1247 29.6036 46.7091 29.2532 46.2088 29.1805L38.5956 28.0741L35.1908 21.1752C34.967 20.7219 34.5053 20.4349 33.9997 20.4349C33.494 20.4349 33.0325 20.7219 32.8089 21.1752ZM36.5228 29.8759C36.7163 30.2678 37.0901 30.5396 37.5227 30.6024L43.164 31.4221L39.082 35.4011C38.7691 35.7062 38.6261 36.1458 38.7 36.5767L39.6637 42.1951L34.6181 39.5424C34.4247 39.4407 34.2123 39.3898 34.0001 39.3898C33.7878 39.3898 33.5755 39.4407 33.3821 39.5424L28.3364 42.1951L29.3002 36.5767C29.374 36.1458 29.2311 35.7062 28.9182 35.4011L24.8361 31.4221L30.4774 30.6024C30.91 30.5396 31.2839 30.2678 31.4774 29.8759L34.0002 24.764L36.5228 29.8759Z" fill="#9F86D9"/>
<path d="M34 11.0237C34.7335 11.0237 35.3281 10.4291 35.3281 9.69559C35.3281 8.96208 34.7335 8.36746 34 8.36746C33.2665 8.36746 32.6719 8.96208 32.6719 9.69559C32.6719 10.4291 33.2665 11.0237 34 11.0237Z" fill="#9F86D9"/>
</g>
<defs>
<clipPath id="clip0_24_15739">
<rect width="68" height="68" fill="white"/>
</clipPath>
</defs>
</svg>
