<svg width="68" height="56" viewBox="0 0 68 56" fill="none" xmlns="http://www.w3.org/2000/svg">
<path d="M51.053 49.6852C50.3195 49.6852 49.723 49.0906 49.723 48.3571C49.723 47.6237 50.3158 47.029 51.0492 47.029H51.0529C51.7864 47.029 52.381 47.6236 52.381 48.3571C52.3811 49.0905 51.7865 49.6852 51.053 49.6852Z" fill="#9F86D9"/>
<path d="M18.0835 47.029H18.0798C17.3463 47.029 16.7537 47.6236 16.7537 48.3571C16.7537 49.0905 17.3501 49.6852 18.0836 49.6852C18.8172 49.6852 19.4118 49.0906 19.4118 48.3571C19.4116 47.6237 18.817 47.029 18.0835 47.029Z" fill="#9F86D9"/>
<path d="M66.0764 43.5266V32.7151C66.0764 32.5491 66.044 32.3798 65.9827 32.2254L59.6433 16.2448C59.4425 15.7388 58.9532 15.4065 58.4088 15.4065H47.8599V10.1953C47.8599 9.46191 47.2653 8.86718 46.5318 8.86718H32.752C32.0251 7.67492 31.1517 6.56062 30.1392 5.54806C27.5792 2.9881 24.3504 1.297 20.8018 0.657505C17.3353 0.0327546 13.8028 0.445802 10.587 1.85215C9.91502 2.14607 9.60849 2.929 9.9024 3.60103C10.1963 4.27293 10.9794 4.57972 11.6513 4.28568C17.344 1.79624 23.8636 3.02874 28.2609 7.42629C31.0944 10.2597 32.6548 14.0264 32.6548 18.0327C32.6548 22.0387 31.0945 25.8044 28.2607 28.6366C25.4291 31.4699 21.6636 33.0303 17.6576 33.0303C13.6516 33.0303 9.88487 31.4697 7.05145 28.6363C2.66053 24.2455 1.42524 17.7292 3.90432 12.0357C4.19717 11.3633 3.88931 10.5806 3.21689 10.2877C2.54472 9.99529 1.76192 10.3027 1.46907 10.9753C0.0686979 14.1914 -0.340763 17.7217 0.284784 21.1846C0.900237 24.5915 2.48708 27.7013 4.8785 30.2084V43.5266C3.74601 44.0357 2.95485 45.1736 2.95485 46.4936V48.2215C2.95485 50.0145 4.41353 51.4733 6.20649 51.4733H11.5183C12.6872 53.9261 15.1903 55.6255 18.0835 55.6255C20.9751 55.6255 23.477 53.9261 24.6453 51.4733H44.4874C45.6558 53.9261 48.1576 55.6255 51.0492 55.6255C53.9424 55.6255 56.4453 53.9261 57.6144 51.4733H64.7482C66.5412 51.4733 67.9999 50.0145 67.9999 48.2215V46.4936C68 45.1736 67.209 44.0357 66.0764 43.5266ZM59.974 24.2817L62.7927 31.3871H48.3757V24.2817H59.974ZM57.507 18.0626L58.9204 21.6254H47.0477C46.3141 21.6254 45.7195 22.22 45.7195 22.9535V32.7151C45.7195 33.4485 46.3141 34.0433 47.0477 34.0433H63.4202V37.3164H61.6163C60.8827 37.3164 60.2881 37.911 60.2881 38.6445C60.2881 39.3781 60.8827 39.9727 61.6163 39.9727H63.4202V43.242H56.2049C54.8873 41.9154 53.0629 41.0924 51.0493 41.0924C49.0368 41.0924 47.2133 41.9154 45.8963 43.242H41.4339V18.0626H57.507ZM10.8312 48.8173H6.20649C5.88363 48.8173 5.61096 48.5445 5.61096 48.2216V46.4938C5.61096 46.1708 5.88376 45.8981 6.20649 45.8981H11.2446C10.9672 46.6665 10.8151 47.4944 10.8151 48.3573C10.8151 48.5118 10.8216 48.665 10.8312 48.8173ZM18.0835 52.9696C15.5403 52.9696 13.4712 50.9005 13.4712 48.3571C13.4712 45.8159 15.5403 43.7484 18.0835 43.7484C20.6248 43.7484 22.6921 45.8159 22.6921 48.3571C22.6921 50.9005 20.6248 52.9696 18.0835 52.9696ZM23.2365 43.2418C21.9195 41.9153 20.096 41.0923 18.0835 41.0923C16.0699 41.0923 14.2455 41.9153 12.9279 43.2418H7.53462V32.5008C10.4803 34.571 13.9833 35.6864 17.6577 35.6864C22.3734 35.6864 26.8062 33.8495 30.1389 30.5148C33.4741 27.1814 35.3109 22.7486 35.3109 18.0327C35.3109 15.7676 34.886 13.5678 34.0759 11.5233H45.2037V15.4063H40.1057C39.3722 15.4063 38.7776 16.0009 38.7776 16.7345V43.2417H23.2365V43.2418ZM25.3322 48.8173C25.3417 48.665 25.3482 48.5118 25.3482 48.3571C25.3482 47.4942 25.1963 46.6664 24.919 45.898H44.2138C43.9365 46.6664 43.7846 47.4942 43.7846 48.3571C43.7846 48.5118 43.7911 48.665 43.8007 48.8173H25.3322ZM51.0493 52.9696C48.5081 52.9696 46.4407 50.9005 46.4407 48.3571C46.4407 45.8159 48.5081 43.7484 51.0493 43.7484C52.4676 43.7484 53.738 44.3919 54.5848 45.4015C54.5942 45.4132 54.604 45.4244 54.6137 45.4358C55.2681 46.2315 55.6615 47.2492 55.6615 48.3571C55.6616 50.9005 53.5925 52.9696 51.0493 52.9696ZM65.3439 48.2216C65.3439 48.5446 65.0711 48.8173 64.7484 48.8173H58.3017C58.3112 48.665 58.3177 48.5118 58.3177 48.3571C58.3177 47.4942 58.1657 46.6664 57.8882 45.898H64.7482C65.0711 45.898 65.3438 46.1708 65.3438 46.4936V48.2216H65.3439Z" fill="#9F86D9"/>
<path d="M17.6581 30.2825C24.4122 30.2825 29.907 24.7877 29.907 18.0334C29.907 11.277 24.4122 5.78033 17.6581 5.78033C10.902 5.78033 5.40552 11.277 5.40552 18.0334C5.40552 24.7875 10.902 30.2825 17.6581 30.2825ZM17.6581 8.43645C22.9477 8.43645 27.2509 12.7416 27.2509 18.0334C27.2509 23.323 22.9477 27.6264 17.6581 27.6264C12.3666 27.6264 8.06163 23.323 8.06163 18.0334C8.06163 12.7414 12.3666 8.43645 17.6581 8.43645Z" fill="#9F86D9"/>
<path d="M17.6581 19.3614H21.4941C22.2276 19.3614 22.8222 18.7668 22.8222 18.0332C22.8222 17.2998 22.2276 16.7051 21.4941 16.7051H18.9861V12.5068C18.9861 11.7734 18.3915 11.1786 17.658 11.1786C16.9244 11.1786 16.3298 11.7733 16.3298 12.5068V18.0332C16.33 18.7668 16.9246 19.3614 17.6581 19.3614Z" fill="#9F86D9"/>
<path d="M6.10861 7.81901C6.44848 7.81901 6.78834 7.68926 7.04773 7.43001L7.05145 7.42629C7.57008 6.90765 7.56809 6.06868 7.04959 5.55004C6.53095 5.03154 5.68826 5.03327 5.16949 5.5519C4.65086 6.07054 4.65086 6.91151 5.16949 7.43014C5.42887 7.68939 5.76874 7.81901 6.10861 7.81901Z" fill="#9F86D9"/>
</svg>
