<svg width="66" height="68" viewBox="0 0 66 68" fill="none" xmlns="http://www.w3.org/2000/svg">
<path d="M33.5042 0H5.14597C2.45333 0 0.262584 2.19141 0.262584 4.88484V50.0123C0.262584 50.7458 0.857318 51.3404 1.59071 51.3404C2.3241 51.3404 2.91883 50.7458 2.91883 50.0123V4.88484C2.91883 3.65606 3.91785 2.65625 5.1461 2.65625H8.54225C8.54743 2.65625 8.55247 2.65705 8.55765 2.65705C9.68789 2.65705 10.7113 3.45631 11.1045 4.64578C11.858 6.92551 13.8951 8.4571 16.1734 8.4571H22.4769C24.7553 8.4571 26.7923 6.92537 27.5459 4.64565C27.939 3.45618 28.9624 2.65691 30.0927 2.65691C30.0979 2.65691 30.1029 2.65625 30.1081 2.65612H33.5045C34.7334 2.65612 35.7331 3.6558 35.7331 4.88471V31.1401L32.3895 33.146C31.9887 33.3864 31.7439 33.8198 31.7447 34.2871V34.2875V34.2879C31.7457 34.7553 31.992 35.1877 32.3936 35.4268L35.7332 37.4143V63.1165C35.7332 64.3446 34.7335 65.3438 33.5046 65.3438H5.14597C3.91785 65.3438 2.9187 64.3446 2.9187 63.1165V61.6965C2.9187 60.9629 2.32397 60.3683 1.59058 60.3683C0.857186 60.3683 0.262451 60.9629 0.262451 61.6965V63.1165C0.262451 65.8093 2.45319 68 5.14597 68H33.5042C36.1977 68 38.3891 65.8093 38.3891 63.1165V40.0648C39.0944 41.575 40.0622 42.9629 41.2465 44.1471C44.0441 46.9447 47.7189 48.3435 51.3937 48.3435C55.0686 48.3435 58.7434 46.9447 61.5409 44.1471C67.1361 38.5519 67.1361 29.4479 61.5409 23.8527C55.9458 18.2577 46.8418 18.2576 41.2464 23.8527C40.0573 25.0418 39.0926 26.4237 38.3889 27.9317V4.88484C38.3891 2.19141 36.1977 0 33.5042 0ZM25.0235 3.81225C24.6304 5.00172 23.6069 5.80098 22.4767 5.80098H16.1731C15.0429 5.80098 14.0194 5.00172 13.6263 3.81225C13.4906 3.40133 13.313 3.01484 13.0998 2.65718H25.5498C25.3369 3.01471 25.1593 3.40133 25.0235 3.81225ZM40.0409 31.1967C40.5486 29.1308 41.6151 27.2408 43.1249 25.7311C47.6846 21.1716 55.1034 21.1716 59.6628 25.7311C64.2223 30.2905 64.2223 37.7093 59.6628 42.269C55.1035 46.8285 47.6846 46.8286 43.1249 42.269C41.7642 40.9082 40.753 39.2198 40.2004 37.3859C40.0968 37.0419 39.8612 36.7629 39.5569 36.5997L35.6618 34.2808L39.3849 32.0469C39.7088 31.8709 39.9503 31.5649 40.0409 31.1967Z" fill="#9F86D9"/>
<path d="M15.1763 59.2819C14.4429 59.2819 13.8481 59.8765 13.8481 60.61C13.8481 61.3436 14.4429 61.9382 15.1763 61.9382H23.4736C24.207 61.9382 24.8017 61.3436 24.8017 60.61C24.8017 59.8765 24.207 59.2819 23.4736 59.2819H15.1763Z" fill="#9F86D9"/>
<path d="M12.1124 19.2567H6.77051C6.03712 19.2567 5.44238 19.8513 5.44238 20.5849V25.9269C5.44238 26.6604 6.03712 27.255 6.77051 27.255C7.5039 27.255 8.09863 26.6604 8.09863 25.9269V21.913H12.1125C12.8459 21.913 13.4406 21.3184 13.4406 20.5849C13.4406 19.8513 12.8459 19.2567 12.1124 19.2567Z" fill="#9F86D9"/>
<path d="M5.44238 47.1362C5.44238 47.8697 6.03712 48.4643 6.77051 48.4643H12.1125C12.8459 48.4643 13.4406 47.8697 13.4406 47.1362C13.4406 46.4027 12.8459 45.8081 12.1125 45.8081H8.09863V41.7944C8.09863 41.0608 7.5039 40.4662 6.77051 40.4662C6.03712 40.4662 5.44238 41.0608 5.44238 41.7944V47.1362Z" fill="#9F86D9"/>
<path d="M33.2243 25.9267V20.5847C33.2243 19.8512 32.6296 19.2566 31.8962 19.2566H26.5542C25.8208 19.2566 25.2261 19.8512 25.2261 20.5847C25.2261 21.3183 25.8208 21.9129 26.5542 21.9129H30.5681V25.9267C30.5681 26.6603 31.1628 27.2549 31.8962 27.2549C32.6296 27.2549 33.2243 26.6603 33.2243 25.9267Z" fill="#9F86D9"/>
<path d="M26.5542 48.4643H31.8962C32.6296 48.4643 33.2243 47.8697 33.2243 47.1362V41.7944C33.2243 41.0608 32.6296 40.4662 31.8962 40.4662C31.1628 40.4662 30.5681 41.0608 30.5681 41.7944V45.8081H26.5542C25.8208 45.8081 25.2261 46.4027 25.2261 47.1362C25.2261 47.8697 25.8207 48.4643 26.5542 48.4643Z" fill="#9F86D9"/>
<path d="M17.3468 24.4087H11.6614C10.928 24.4087 10.3333 25.0033 10.3333 25.7368V31.4577C10.3333 32.1912 10.928 32.7858 11.6614 32.7858H17.3468C18.0802 32.7858 18.6749 32.1912 18.6749 31.4577V25.7368C18.6749 25.0033 18.0802 24.4087 17.3468 24.4087ZM16.0187 30.1296H12.9895V27.0649H16.0187V30.1296Z" fill="#9F86D9"/>
<path d="M21.1029 25.7368V35.5193H16.4785C15.7451 35.5193 15.1504 36.1139 15.1504 36.8474C15.1504 37.5809 15.7451 38.1755 16.4785 38.1755H22.431C23.1644 38.1755 23.7592 37.5809 23.7592 36.8474V27.0649H25.6772V30.2191C25.6772 30.9526 26.272 31.5472 27.0054 31.5472C27.7388 31.5472 28.3335 30.9526 28.3335 30.2191V25.7368C28.3335 25.0033 27.7388 24.4087 27.0054 24.4087H22.431C21.6975 24.4087 21.1029 25.0033 21.1029 25.7368Z" fill="#9F86D9"/>
<path d="M28.3335 41.9843C28.3335 41.2508 27.7387 40.6562 27.0053 40.6562H12.9895V37.1008C12.9895 36.3672 12.3948 35.7726 11.6614 35.7726C10.928 35.7726 10.3333 36.3672 10.3333 37.1008V41.9843C10.3333 42.7178 10.928 43.3124 11.6614 43.3124H27.0053C27.7389 43.3124 28.3335 42.7178 28.3335 41.9843Z" fill="#9F86D9"/>
<path d="M28.3335 37.2433V35.4373C28.3335 34.7038 27.7388 34.1092 27.0054 34.1092C26.272 34.1092 25.6772 34.7038 25.6772 35.4373V37.2433C25.6772 37.9768 26.272 38.5714 27.0054 38.5714C27.7388 38.5714 28.3335 37.9768 28.3335 37.2433Z" fill="#9F86D9"/>
<path d="M47.7783 40.239C48.6909 40.8295 49.3809 41.0866 50.1946 41.1893V41.2983C50.1946 42.0057 50.7283 42.6233 51.4341 42.6691C52.2076 42.7193 52.8508 42.1066 52.8508 41.3439V41.0538C54.6154 40.5188 55.744 38.9724 56.0006 37.447C56.3448 35.3995 55.2347 33.5495 53.2382 32.8437C51.7548 32.3194 50.8554 31.9017 50.3218 31.4893C50.0206 31.2565 50.0356 30.8979 50.0712 30.7049C50.1361 30.3528 50.4053 29.8836 50.9495 29.7197C52.1648 29.3536 52.9363 29.9703 53.0203 30.0418L53.294 30.2524C53.8166 30.6546 54.5573 30.6028 55.0187 30.1317C55.5031 29.6372 55.5161 28.8502 55.0481 28.3399L54.803 28.0729C54.4278 27.7267 53.7429 27.3027 52.8507 27.0883V26.7554C52.8507 26.048 52.3169 25.4304 51.6111 25.3846C50.8376 25.3344 50.1944 25.9471 50.1944 26.7098V27.173C50.1906 27.1741 50.187 27.175 50.1831 27.1762C48.7713 27.6015 47.7276 28.7687 47.4589 30.2223C47.2148 31.5436 47.6776 32.803 48.6972 33.5909C49.4849 34.1996 50.544 34.7088 52.3528 35.3481C53.426 35.7275 53.4575 36.55 53.3807 37.0065C53.2531 37.7656 52.6143 38.5863 51.5134 38.5935C50.3729 38.6029 50.0475 38.5495 49.1852 37.9853C48.5495 37.5695 47.6901 37.7688 47.3059 38.4361C46.9495 39.0559 47.1781 39.8507 47.7783 40.239Z" fill="#9F86D9"/>
<path d="M0.288981 56.1133C0.432817 56.8218 1.13938 57.299 1.85086 57.1559C2.55888 57.0134 3.03528 56.3051 2.89357 55.5953C2.75186 54.886 2.04091 54.4117 1.33169 54.5527C0.6242 54.6935 0.145145 55.4045 0.288981 56.1133Z" fill="#9F86D9"/>
</svg>
