<svg width="24" height="24" viewBox="0 0 24 24" fill="none" xmlns="http://www.w3.org/2000/svg">
<g clip-path="url(#clip0_332_21463)">
<path d="M23.8612 4.91064L19.5 1.39502C19.4681 1.37064 15.8119 0.0243927 15.8119 0.0243927C15.7621 0.00864506 15.7103 0.000429111 15.6581 1.76816e-05C15.5864 -0.000363321 15.5169 0.0241583 15.4612 0.0693927C14.775 0.562518 12.63 1.72314 12 2.06252C11.37 1.72314 9.225 0.562518 8.53875 0.0712677C8.49213 0.0326845 8.43561 0.00799383 8.37562 1.76816e-05C8.31262 -0.00493029 8.24923 0.000774592 8.18812 0.0168927C8.18812 0.0168927 4.53187 1.37064 4.5 1.39502L0.138749 4.91064C0.069196 4.96697 0.0220829 5.04632 0.00592125 5.13435C-0.0102404 5.22238 0.00561526 5.31328 0.0506235 5.39064L2.16 9.04689C2.20809 9.13002 2.28624 9.19152 2.37833 9.21873C2.47043 9.24594 2.56945 9.23678 2.655 9.19314L4.29 8.35502L4.83562 13.1813C4.77949 13.2137 4.73271 13.2601 4.69985 13.3159C4.66699 13.3718 4.64917 13.4352 4.64812 13.5V23.625C4.64812 23.7245 4.68763 23.8199 4.75796 23.8902C4.82828 23.9605 4.92367 24 5.02312 24H10.5C10.5768 24.0001 10.6519 23.9766 10.7149 23.9327C10.778 23.8888 10.826 23.8265 10.8525 23.7544L12 20.625L13.1494 23.7581C13.1764 23.8293 13.2244 23.8905 13.287 23.9337C13.3496 23.9769 13.4239 24 13.5 24H18.9675C19.067 24 19.1623 23.9605 19.2327 23.8902C19.303 23.8199 19.3425 23.7245 19.3425 23.625V13.5C19.3415 13.4352 19.3236 13.3718 19.2908 13.3159C19.2579 13.2601 19.2111 13.2137 19.155 13.1813L19.7006 8.35502L21.345 9.18752C21.4305 9.23116 21.5296 9.24032 21.6217 9.21311C21.7138 9.18589 21.7919 9.12439 21.84 9.04127L23.9494 5.38502C23.9929 5.30822 24.0079 5.21854 23.9917 5.13178C23.9756 5.04501 23.9294 4.9667 23.8612 4.91064ZM15.2869 13.125L16.0256 0.900018L16.7306 1.15877L16.0987 13.125H15.2869ZM7.90125 13.125L7.26937 1.15877L7.97437 0.900018L8.71312 13.125H7.90125ZM9.46312 13.125L8.87625 3.39002L9.31125 4.76627C9.33022 4.82639 9.36405 4.88076 9.40961 4.92435C9.45516 4.96794 9.51097 4.99934 9.57187 5.01564C9.69509 5.01784 9.81669 4.98744 9.92437 4.92752L12 3.00002L14.0756 4.93127C14.1833 4.99119 14.3049 5.02159 14.4281 5.01939C14.489 5.00309 14.5448 4.97169 14.5904 4.9281C14.6359 4.88451 14.6698 4.83014 14.6887 4.77002L15.1237 3.39377L14.5369 13.125H9.46312ZM8.985 1.23939C9.7725 1.70627 10.7794 2.25564 11.3606 2.56689L9.8475 3.97502L8.985 1.23939ZM12.6394 2.56689C13.2206 2.25002 14.2275 1.70627 15.015 1.23939L14.1525 3.97502L12.6394 2.56689ZM4.43062 7.44189L2.625 8.36252L0.860624 5.29314L4.92187 2.01752L6.5325 1.42877L7.15125 13.125H5.58562L4.97437 7.73064C4.96742 7.67043 4.94598 7.61281 4.91189 7.5627C4.8778 7.51259 4.83207 7.47149 4.77861 7.44292C4.72516 7.41435 4.66558 7.39916 4.60498 7.39866C4.54437 7.39815 4.48454 7.41234 4.43062 7.44002V7.44189ZM12.3525 19.4044C12.3237 19.3336 12.2752 19.2727 12.2127 19.2288C12.1502 19.1849 12.0763 19.1599 12 19.1569C11.9232 19.1568 11.8481 19.1803 11.7851 19.2242C11.722 19.2682 11.674 19.3304 11.6475 19.4025L10.2375 23.25H5.40562V13.875H18.5944V23.25H13.7625L12.3525 19.4044ZM21.375 8.36252L19.575 7.44002C19.5211 7.41234 19.4613 7.39815 19.4006 7.39866C19.34 7.39916 19.2805 7.41435 19.227 7.44292C19.1736 7.47149 19.1278 7.51259 19.0937 7.5627C19.0596 7.61281 19.0382 7.67043 19.0312 7.73064L18.4144 13.125H16.8487L17.4675 1.42877L19.0781 2.01752L23.1394 5.29314L21.375 8.36252Z" fill="#1C1D1D"/>
</g>
<defs>
<clipPath id="clip0_332_21463">
<rect width="24" height="24" fill="white"/>
</clipPath>
</defs>
</svg>
