<svg width="24" height="24" viewBox="0 0 24 24" fill="none" xmlns="http://www.w3.org/2000/svg">
<path d="M12.4208 13.8668C12.5157 13.8086 12.6038 13.7396 12.6833 13.6598C13.2372 13.1059 13.2372 12.2044 12.6833 11.6501C12.1459 11.1131 11.2092 11.1135 10.6737 11.6501C10.5938 11.7296 10.5248 11.8181 10.4667 11.9126L8.77803 10.224C8.70753 10.1535 8.61265 10.1141 8.5129 10.1141C8.41315 10.1141 8.3179 10.1535 8.24778 10.224L6.55878 11.9126C6.50103 11.8181 6.43165 11.7296 6.35215 11.6501C5.81478 11.1131 4.87803 11.1139 4.34253 11.6501C4.07403 11.9183 3.92665 12.2753 3.92665 12.6551C3.92665 13.035 4.0744 13.392 4.34253 13.6598C4.42203 13.7396 4.51015 13.8086 4.60465 13.8668L2.91603 15.5554C2.84553 15.6259 2.80615 15.7211 2.80615 15.8205C2.80615 15.9199 2.84553 16.0155 2.91603 16.0856L5.03703 18.2066C5.14203 18.312 5.29953 18.3454 5.43753 18.2914C5.5759 18.2378 5.66965 18.1073 5.67678 17.9591C5.68465 17.7889 5.75403 17.6303 5.87215 17.5121C6.12565 17.2586 6.5674 17.2594 6.8209 17.5121C6.94765 17.6389 7.01703 17.8073 7.01703 17.9869C7.01703 18.1665 6.94728 18.3349 6.8209 18.4616C6.70278 18.5798 6.54415 18.6491 6.3739 18.657C6.2254 18.6641 6.09528 18.7579 6.04165 18.8963C5.98803 19.0346 6.02103 19.1918 6.1264 19.2968L8.2474 21.4178C8.3179 21.4883 8.41278 21.5276 8.51253 21.5276C8.61228 21.5276 8.70753 21.4883 8.77765 21.4178L10.8983 19.2968C11.0033 19.1918 11.0363 19.0346 10.983 18.8963C10.929 18.7579 10.7993 18.6641 10.6508 18.657C10.4805 18.6491 10.3219 18.5798 10.2038 18.4616C9.9424 18.1999 9.9424 17.7743 10.2038 17.5125C10.4652 17.2511 10.8915 17.2511 11.1529 17.5125C11.271 17.6306 11.3404 17.7896 11.3483 17.9595C11.3554 18.108 11.4492 18.2381 11.5875 18.2918C11.7263 18.3458 11.883 18.312 11.988 18.207L14.1087 16.086C14.2553 15.9394 14.2553 15.7024 14.1087 15.5558L12.4208 13.8668ZM11.8905 17.244C11.8328 17.1495 11.7634 17.061 11.6835 16.9815C11.1289 16.4273 10.2274 16.4276 9.6739 16.9815C9.11965 17.5358 9.11965 18.4373 9.6739 18.9911C9.7534 19.0706 9.84153 19.14 9.9364 19.1978L8.5129 20.6213L7.08903 19.1978C7.1839 19.14 7.27203 19.0706 7.35153 18.9911C7.62003 18.723 7.7674 18.366 7.7674 17.9861C7.7674 17.6063 7.61965 17.2493 7.35153 16.9811C6.81528 16.4449 5.87778 16.4445 5.34265 16.9808C5.26278 17.0606 5.1934 17.1488 5.13528 17.2436L3.7114 15.8201L5.56728 13.9643C5.67228 13.8593 5.70528 13.7021 5.65203 13.5638C5.59803 13.425 5.4679 13.3313 5.3194 13.3245C5.14953 13.3166 4.9909 13.2473 4.87278 13.1291C4.74603 13.0024 4.67665 12.834 4.67665 12.6544C4.67665 12.4748 4.7464 12.3064 4.87278 12.1796C5.12628 11.9265 5.5684 11.9269 5.8219 12.1796C5.93965 12.2978 6.00903 12.4568 6.01728 12.627C6.0244 12.7755 6.11815 12.9056 6.25653 12.9593C6.39565 13.0133 6.55203 12.9799 6.65703 12.8745L8.5129 11.0186L10.3684 12.8745C10.4734 12.9795 10.6309 13.0129 10.7689 12.9593C10.9073 12.9056 11.001 12.7751 11.0082 12.627C11.016 12.4571 11.0854 12.2981 11.2035 12.18C11.457 11.9269 11.8992 11.9269 12.1527 12.18C12.414 12.4418 12.414 12.8674 12.1527 13.1295C12.0345 13.2476 11.8759 13.317 11.706 13.3249C11.5575 13.3316 11.4274 13.4254 11.3734 13.5641C11.3198 13.7025 11.3528 13.8596 11.4582 13.9646L13.3137 15.8205L11.8905 17.244Z" fill="#1C1D1D"/>
<path d="M21.1939 8.1795C21.1939 8.08012 21.1545 7.9845 21.084 7.91437L19.395 6.22575C19.4899 6.168 19.578 6.09862 19.6575 6.01912C19.926 5.751 20.0734 5.394 20.0734 5.01412C20.0734 4.63425 19.9257 4.27725 19.6575 4.0095C19.1213 3.47287 18.1845 3.47212 17.6479 4.0095C17.568 4.089 17.4994 4.17712 17.4413 4.272L15.7523 2.58337C15.6117 2.44275 15.3627 2.44275 15.222 2.58337L13.1014 4.70437C12.9964 4.80937 12.9634 4.9665 13.0167 5.10487C13.0707 5.24325 13.2004 5.337 13.3489 5.34412C13.5192 5.352 13.6778 5.42137 13.7959 5.5395C14.0573 5.80125 14.0573 6.22687 13.7959 6.48862C13.5345 6.75 13.1082 6.75 12.8468 6.48862C12.7287 6.3705 12.6593 6.2115 12.6514 6.04162C12.6443 5.89312 12.5505 5.763 12.4122 5.70937C12.2738 5.65612 12.117 5.6895 12.0117 5.79412L9.89104 7.91512C9.74441 8.06175 9.74441 8.29875 9.89104 8.44537L12.0117 10.5664C12.117 10.6714 12.2738 10.7051 12.4122 10.6511C12.5505 10.5975 12.6443 10.467 12.6514 10.3189C12.6593 10.149 12.7287 9.99 12.8468 9.87187C13.1082 9.6105 13.5345 9.6105 13.7959 9.87187C14.0573 10.1336 14.0573 10.5592 13.7959 10.8214C13.6778 10.9395 13.5192 11.0089 13.3493 11.0167C13.2008 11.0235 13.0707 11.1173 13.0167 11.256C12.963 11.3944 12.996 11.5515 13.1014 11.6565L15.222 13.7775C15.2925 13.848 15.3874 13.8874 15.4872 13.8874C15.5869 13.8874 15.6822 13.848 15.7523 13.7775L17.4413 12.0889C17.499 12.1834 17.5684 12.2719 17.6479 12.3514C18.1849 12.888 19.1217 12.8872 19.6575 12.3514C19.926 12.0832 20.0734 11.7262 20.0734 11.3464C20.0734 10.9665 19.9257 10.6095 19.6575 10.3417C19.578 10.2619 19.4899 10.1929 19.3954 10.1347L21.084 8.44612C21.1542 8.3745 21.1939 8.27887 21.1939 8.1795ZM18.4324 10.0354C18.3274 10.1404 18.2944 10.2975 18.3477 10.4359C18.4017 10.5746 18.5318 10.6684 18.6803 10.6751C18.8502 10.683 19.0088 10.7524 19.1269 10.8705C19.2537 10.9973 19.323 11.1656 19.323 11.3452C19.323 11.5249 19.2533 11.6932 19.1269 11.82C18.8734 12.0731 18.4313 12.0727 18.1778 11.82C18.06 11.7019 17.9907 11.5429 17.9824 11.3726C17.9753 11.2241 17.8815 11.094 17.7432 11.0404C17.6048 10.9867 17.4477 11.0205 17.3427 11.1251L15.4868 12.981L14.0633 11.5575C14.1582 11.4994 14.2463 11.4304 14.3258 11.3505C14.8797 10.7966 14.8797 9.89512 14.3258 9.34087C13.7712 8.78662 12.8697 8.787 12.3162 9.34087C12.2363 9.42037 12.1673 9.50887 12.1092 9.60337L10.6857 8.17987L12.1092 6.75637C12.1669 6.85087 12.2363 6.93937 12.3162 7.01887C12.8708 7.57312 13.7723 7.57275 14.3258 7.01887C14.88 6.46462 14.88 5.56312 14.3258 5.00925C14.2463 4.92975 14.1582 4.86037 14.0633 4.80262L15.4868 3.37912L17.3427 5.235C17.4477 5.34 17.6048 5.37375 17.7432 5.31975C17.8815 5.26612 17.9753 5.13562 17.9824 4.9875C17.9903 4.81725 18.0597 4.65862 18.1778 4.5405C18.4313 4.287 18.8734 4.287 19.1269 4.5405C19.2537 4.66725 19.323 4.83562 19.323 5.01525C19.323 5.19487 19.2533 5.36325 19.1269 5.49C19.0088 5.60812 18.8502 5.6775 18.6799 5.68537C18.5314 5.6925 18.4013 5.78625 18.3477 5.92462C18.294 6.063 18.327 6.22012 18.4324 6.32512L20.2883 8.181L18.4324 10.0354Z" fill="#1C1D1D"/>
</svg>
