<svg width="24" height="24" viewBox="0 0 24 24" fill="none" xmlns="http://www.w3.org/2000/svg">
<path d="M23.6001 18.402H22.4122C22.283 18.402 22.1617 18.3395 22.0868 18.2342L18.3279 12.9714C18.2871 12.9147 18.2318 12.87 18.168 12.8417C18.7963 12.0564 19.2016 10.734 19.2016 9.20504C19.2016 6.73868 18.1477 4.80652 16.8024 4.80652H6.00602C4.66097 4.80652 3.60683 6.73868 3.60683 9.20504C3.5752 10.3437 3.84444 11.4709 4.38781 12.4723L0.0816422 18.571C-0.00680469 18.6874 -0.0247674 18.8428 0.0347829 18.9762C0.0943333 19.1097 0.22222 19.1999 0.367874 19.2116C0.513529 19.2234 0.654106 19.1546 0.734158 19.0324L1.46204 18.0021H3.25538L2.87309 18.5814C2.75614 18.7657 2.80846 19.0098 2.99063 19.1298C3.17299 19.2497 3.41783 19.2015 3.54083 19.0213L6.00602 15.2829V18.8018C6.00602 19.0226 6.18506 19.2017 6.40589 19.2017H8.00535C8.22618 19.2017 8.40522 19.0226 8.40522 18.8018V13.6036H14.8031V18.8018C14.8031 19.0226 14.9821 19.2017 15.2029 19.2017H16.8024C17.0232 19.2017 17.2023 19.0226 17.2023 18.8018V13.6036H17.796L21.4348 18.6989C21.6601 19.0146 22.0243 19.2019 22.4122 19.2017H23.6001C23.8209 19.2017 24 19.0226 24 18.8018C24 18.581 23.8209 18.402 23.6001 18.402ZM9.60481 5.60625C10.1646 5.60625 10.7326 6.39153 11.0157 7.56067C11.2671 8.64273 11.2671 9.76794 11.0157 10.85C10.7326 12.0184 10.1646 12.8038 9.60481 12.8038H7.40848C7.41356 12.797 7.41805 12.7886 7.42312 12.7818C7.49771 12.6828 7.56663 12.5799 7.62989 12.4735C7.642 12.454 7.65352 12.4335 7.66504 12.4135C7.73044 12.3001 7.79195 12.1802 7.84935 12.0537C7.85872 12.034 7.86712 12.0137 7.8759 11.9932C7.93428 11.86 7.98895 11.721 8.03893 11.5738C8.04381 11.5593 8.04811 11.5441 8.05299 11.5295C8.10493 11.3731 8.15257 11.2094 8.19415 11.0396C8.4757 9.83315 8.4757 8.5783 8.19415 7.37206C8.15413 7.20318 8.1061 7.04327 8.05533 6.88863C8.04928 6.87047 8.04381 6.85173 8.03776 6.83416C7.98895 6.68987 7.93506 6.55417 7.87785 6.42199C7.8679 6.39954 7.85872 6.37669 7.84857 6.35463C7.79136 6.22909 7.73044 6.11057 7.66582 5.99889C7.65391 5.97761 7.642 5.95652 7.62911 5.93563C7.56644 5.82981 7.49771 5.7275 7.42351 5.62929C7.41844 5.62265 7.41356 5.61386 7.40848 5.60664L9.60481 5.60625ZM4.83805 15.6029H3.15854L3.72319 14.8032H5.3662L4.83805 15.6029ZM4.28668 14.0034L4.90678 13.1237C5.19809 13.4189 5.59171 13.5907 6.00602 13.6036V13.8318L5.89297 14.0034H4.28668ZM6.00602 5.60625C6.56579 5.60625 7.13377 6.39153 7.41688 7.56067C7.66835 8.64273 7.66835 9.76794 7.41688 10.85C7.13377 12.0184 6.56579 12.8038 6.00602 12.8038C5.24944 12.8038 4.40656 11.3243 4.40656 9.20504C4.40656 7.08564 5.24944 5.60625 6.00602 5.60625ZM2.02708 17.2024L2.59154 16.4026H4.31108L3.78274 17.2024H2.02708ZM7.60549 18.402H6.80575V14.0722L7.11483 13.6036H7.60549V18.402ZM11.0219 12.7818C11.0965 12.6828 11.1654 12.5799 11.2287 12.4735C11.2408 12.454 11.2523 12.4335 11.2638 12.4135C11.3292 12.3001 11.3907 12.1802 11.4481 12.0537C11.4575 12.034 11.4659 12.0137 11.4747 11.9932C11.5331 11.86 11.5877 11.721 11.6377 11.5738C11.6426 11.5593 11.6469 11.5441 11.6518 11.5295C11.7037 11.3731 11.7514 11.2094 11.7929 11.0396C12.0745 9.83315 12.0745 8.5783 11.7929 7.37206C11.7529 7.20318 11.7049 7.04327 11.6541 6.88863C11.6481 6.87047 11.6426 6.85173 11.6366 6.83416C11.5877 6.68987 11.5339 6.55417 11.4766 6.42199C11.4667 6.39954 11.4575 6.37669 11.4474 6.35463C11.3902 6.22909 11.3292 6.11057 11.2646 5.99889C11.2527 5.97761 11.2408 5.95652 11.2279 5.93563C11.1652 5.82981 11.0965 5.7275 11.0223 5.62929C11.0172 5.62265 11.0123 5.61386 11.0073 5.60664H13.2036C13.7634 5.60664 14.3314 6.39192 14.6145 7.56106C14.8659 8.64312 14.8659 9.76833 14.6145 10.8504C14.3314 12.0184 13.7634 12.8038 13.2036 12.8038H11.0073C11.0123 12.797 11.0168 12.7886 11.0219 12.7818ZM14.6207 12.7818C14.6953 12.6828 14.7642 12.5799 14.8275 12.4735C14.8396 12.454 14.8511 12.4335 14.8626 12.4135C14.9278 12.3001 14.9891 12.1802 15.0469 12.0537C15.0563 12.034 15.0647 12.0137 15.0735 11.9932C15.1319 11.86 15.1865 11.721 15.2365 11.5738C15.2414 11.5593 15.2457 11.5441 15.2506 11.5295C15.3025 11.3731 15.3502 11.2094 15.3917 11.0396C15.6733 9.83315 15.6733 8.5783 15.3917 7.37206C15.3517 7.20318 15.3037 7.04327 15.2529 6.88863C15.2469 6.87047 15.2414 6.85173 15.2353 6.83416C15.1865 6.68987 15.1326 6.55417 15.0754 6.42199C15.0655 6.39954 15.0563 6.37669 15.0462 6.35463C14.9891 6.22909 14.9282 6.11057 14.8634 5.99889C14.8515 5.97761 14.8396 5.95652 14.8267 5.93563C14.764 5.82981 14.6953 5.7275 14.6211 5.62929C14.616 5.62265 14.6111 5.61386 14.6061 5.60664H16.8024C17.559 5.60664 18.4019 7.08603 18.4019 9.20543C18.4019 11.3246 17.559 12.8042 16.8024 12.8042H14.6061C14.6111 12.797 14.6156 12.7886 14.6207 12.7818ZM16.4025 18.402H15.6028V13.6036H16.4025V18.402Z" fill="#1C1D1D"/>
</svg>
