<svg width="24" height="24" viewBox="0 0 24 24" fill="none" xmlns="http://www.w3.org/2000/svg">
<g clip-path="url(#clip0_332_21459)">
<path d="M7.52762 15.6136C7.37709 15.5966 7.2338 15.5398 7.11242 15.4492L4.61842 13.6892C4.45133 13.561 4.25787 13.4716 4.05201 13.4273C3.84614 13.3831 3.63302 13.3851 3.42802 13.4332L2.67762 10.2504C2.63764 10.0764 2.56364 9.91205 2.45987 9.76678C2.35611 9.62152 2.22464 9.49821 2.07302 9.40396C1.92141 9.30971 1.75265 9.24639 1.57646 9.21763C1.40027 9.18887 1.22013 9.19525 1.04642 9.2364C0.720752 9.31663 0.435709 9.51328 0.245075 9.78925C0.0544412 10.0652 -0.0285995 10.4014 0.0116213 10.7344L0.759621 16.3344C0.817023 16.7571 1.03683 17.1407 1.37242 17.404L6.04962 20.8228C6.15811 20.9039 6.24626 21.009 6.30707 21.1301C6.36789 21.2511 6.39971 21.3846 6.40002 21.52V23.2C6.40002 23.4122 6.48431 23.6157 6.63434 23.7657C6.78437 23.9157 6.98785 24 7.20002 24H10.4C10.6122 24 10.8157 23.9157 10.9657 23.7657C11.1157 23.6157 11.2 23.4122 11.2 23.2V19.6C11.1954 18.5972 10.8161 17.6323 10.1367 16.8948C9.45724 16.1573 8.52667 15.7003 7.52762 15.6136ZM10.4 23.2H7.20002V21.52C7.1999 21.2599 7.13909 21.0034 7.02243 20.7709C6.90577 20.5384 6.73648 20.3364 6.52802 20.1808L1.85842 16.768C1.69036 16.6341 1.58081 16.4402 1.55282 16.2272L0.804821 10.6272C0.78891 10.4906 0.823476 10.3529 0.90201 10.2401C0.980544 10.1272 1.09763 10.0469 1.23122 10.0144C1.30252 9.9976 1.37645 9.99511 1.44871 10.0071C1.52098 10.019 1.59016 10.0452 1.65225 10.0841C1.71434 10.123 1.7681 10.1738 1.81042 10.2335C1.85274 10.2933 1.88279 10.3609 1.89882 10.4324L2.71362 13.8912C2.60084 14.03 2.51703 14.19 2.46715 14.3618C2.41727 14.5335 2.40233 14.7136 2.42322 14.8912C2.44472 15.0731 2.50287 15.2488 2.59417 15.4076C2.68547 15.5664 2.80803 15.7051 2.95442 15.8152L5.74322 17.9084C5.82809 17.972 5.93477 17.9994 6.03979 17.9844C6.14481 17.9694 6.23957 17.9133 6.30322 17.8284C6.36687 17.7435 6.3942 17.6368 6.3792 17.5318C6.3642 17.4268 6.30809 17.332 6.22322 17.2684L3.43482 15.176C3.36868 15.1267 3.31451 15.063 3.27633 14.9899C3.23815 14.9167 3.21695 14.8359 3.2143 14.7534C3.21165 14.671 3.22761 14.589 3.26101 14.5135C3.29441 14.438 3.34439 14.3711 3.40722 14.3176C3.51455 14.2385 3.64528 14.1977 3.77855 14.2016C3.91181 14.2055 4.03992 14.2539 4.14242 14.3392L6.64842 16.1064C6.88659 16.2794 7.16663 16.3857 7.45962 16.4144C8.25874 16.483 9.00336 16.8478 9.54736 17.4372C10.0914 18.0266 10.3955 18.798 10.4 19.6V23.2Z" fill="#1C1D1D"/>
<path d="M22.9508 9.23605C22.7773 9.19531 22.5975 9.18922 22.4217 9.21813C22.2459 9.24703 22.0775 9.31037 21.9262 9.4045C21.7749 9.49864 21.6437 9.62172 21.5401 9.76668C21.4365 9.91164 21.3625 10.0756 21.3224 10.2493L20.572 13.4345C20.3694 13.3863 20.1587 13.3836 19.9549 13.4264C19.7511 13.4692 19.5593 13.5565 19.3932 13.6821L16.8876 15.4493C16.7662 15.5399 16.6229 15.5966 16.4724 15.6137C15.4733 15.7004 14.5428 16.1573 13.8633 16.8949C13.1839 17.6324 12.8046 18.5973 12.8 19.6001V23.2001C12.8 23.4122 12.8843 23.6157 13.0343 23.7657C13.1843 23.9158 13.3878 24.0001 13.6 24.0001H16.8C17.0122 24.0001 17.2156 23.9158 17.3657 23.7657C17.5157 23.6157 17.6 23.4122 17.6 23.2001V21.5201C17.5999 21.3858 17.6308 21.2534 17.6904 21.1331C17.7501 21.0129 17.8367 20.908 17.9436 20.8269L22.64 17.3929C22.9693 17.1306 23.1844 16.751 23.24 16.3337L23.988 10.7337C24.0279 10.4004 23.9445 10.0641 23.7534 9.78818C23.5623 9.51227 23.2768 9.31587 22.9508 9.23605ZM22.4472 16.2269C22.4209 16.4343 22.3168 16.624 22.156 16.7577L17.4652 20.1865C17.2585 20.3419 17.0908 20.5434 16.9753 20.7748C16.8599 21.0063 16.7998 21.2614 16.8 21.5201V23.2001H13.6V19.6001C13.6036 18.7979 13.9068 18.026 14.4503 17.436C14.9937 16.8459 15.738 16.4803 16.5372 16.4109C16.8302 16.3822 17.1102 16.2759 17.3484 16.1029L19.866 14.3269C19.9765 14.2429 20.1112 14.1971 20.25 14.1965C20.3735 14.1945 20.4938 14.2361 20.5896 14.3141H20.5916C20.6544 14.3675 20.7044 14.4345 20.7378 14.51C20.7712 14.5854 20.7872 14.6674 20.7845 14.7499C20.7819 14.8324 20.7607 14.9132 20.7225 14.9863C20.6843 15.0595 20.6301 15.1231 20.564 15.1725L17.776 17.2697C17.734 17.3012 17.6986 17.3407 17.6718 17.3859C17.645 17.4311 17.6274 17.4811 17.62 17.5331C17.6126 17.5851 17.6155 17.638 17.6285 17.6889C17.6415 17.7398 17.6645 17.7876 17.696 17.8297C17.7275 17.8717 17.767 17.9071 17.8122 17.9338C17.8574 17.9606 17.9074 17.9782 17.9594 17.9856C18.0114 17.9931 18.0644 17.9902 18.1153 17.9771C18.1661 17.9641 18.214 17.9412 18.256 17.9097L21.0448 15.8165C21.1912 15.7063 21.3137 15.5677 21.405 15.4089C21.4963 15.2501 21.5545 15.0744 21.576 14.8925C21.5969 14.7148 21.5819 14.5348 21.5321 14.363C21.4822 14.1913 21.3984 14.0313 21.2856 13.8925L22.1004 10.4325C22.1165 10.3613 22.1465 10.2941 22.1887 10.2346C22.2309 10.1752 22.2844 10.1246 22.3462 10.0858C22.4079 10.0471 22.4767 10.0209 22.5486 10.0088C22.6205 9.99666 22.6941 9.99886 22.7652 10.0153C22.8994 10.0473 23.0172 10.1275 23.0963 10.2406C23.1754 10.3536 23.2103 10.4918 23.1944 10.6289L22.4472 16.2269Z" fill="#1C1D1D"/>
<path d="M14.7496 15.3248C19.1156 11.614 22 9.1624 22 5.6472C22 2.4276 19.7644 0 16.8 0C15.8615 0.000823692 14.9367 0.225051 14.102 0.65414C13.2673 1.08323 12.5468 1.70485 12 2.4676C11.4532 1.70485 10.7327 1.08323 9.89799 0.65414C9.06333 0.225051 8.1385 0.000823692 7.2 0C4.2356 0 2 2.4276 2 5.6472C2 9.1624 4.8844 11.614 9.2504 15.3248C9.8156 15.8048 10.4076 16.3084 11.022 16.8384C11.2947 17.0712 11.6415 17.199 12 17.199C12.3585 17.199 12.7053 17.0712 12.978 16.8384C13.5924 16.3084 14.1844 15.806 14.7496 15.3248ZM11.5444 16.2324C10.9281 15.7012 10.3361 15.1956 9.7684 14.7156C5.5724 11.1488 2.8 8.7924 2.8 5.6472C2.8 2.884 4.6916 0.8 7.2 0.8C8.10213 0.807347 8.98675 1.04985 9.76652 1.50357C10.5463 1.95729 11.1942 2.60653 11.6464 3.3872C11.6838 3.4473 11.736 3.49688 11.7979 3.53125C11.8598 3.56563 11.9294 3.58366 12.0002 3.58366C12.071 3.58366 12.1406 3.56563 12.2025 3.53125C12.2644 3.49688 12.3166 3.4473 12.354 3.3872C12.8109 2.61083 13.4599 1.96507 14.2385 1.51197C15.0172 1.05888 15.8992 0.813701 16.8 0.8C19.3084 0.8 21.2 2.884 21.2 5.6472C21.2 8.7924 18.4276 11.1488 14.2316 14.7156C13.6647 15.1972 13.0727 15.7029 12.4556 16.2328C12.3285 16.3412 12.167 16.4007 11.9999 16.4007C11.8329 16.4006 11.6714 16.3409 11.5444 16.2324Z" fill="#1C1D1D"/>
<path d="M17.2132 10.348C17.3817 10.1812 17.4923 9.96484 17.5288 9.73059C17.5653 9.49633 17.5258 9.25654 17.416 9.0464C17.5993 8.99849 17.778 8.93437 17.95 8.8548C18.1624 8.99052 18.4143 9.05089 18.6651 9.02622C18.916 9.00156 19.1513 8.89329 19.3332 8.7188C19.5118 8.53929 19.623 8.30356 19.6479 8.05151C19.6727 7.79946 19.6097 7.54656 19.4696 7.3356C19.7165 6.8124 19.8156 6.2316 19.7561 5.65612C19.6966 5.08064 19.4808 4.53241 19.132 4.0708C19.2579 3.99091 19.4003 3.94033 19.5484 3.9228C19.6545 3.9219 19.7559 3.87889 19.8302 3.80324C19.9046 3.72759 19.9459 3.62549 19.945 3.5194C19.9441 3.41332 19.9011 3.31193 19.8254 3.23756C19.7498 3.16318 19.6477 3.1219 19.5416 3.1228C19.1857 3.14624 18.8447 3.27457 18.5616 3.4916C18.0989 3.12316 17.5424 2.89158 16.9549 2.82308C16.3675 2.75458 15.7726 2.85189 15.2376 3.104C15.0254 2.9676 14.7734 2.90681 14.5223 2.93149C14.2713 2.95618 14.0359 3.06488 13.8544 3.24C13.6756 3.41949 13.5645 3.65526 13.5397 3.90735C13.5149 4.15944 13.578 4.41234 13.7184 4.6232C13.6389 4.79513 13.575 4.97385 13.5276 5.1572C13.3173 5.04745 13.0773 5.00789 12.8429 5.04431C12.6085 5.08073 12.3919 5.19122 12.2248 5.3596L9.43158 8.1532C8.77933 8.81668 8.4156 9.71096 8.41959 10.6413C8.42357 11.5717 8.79495 12.4629 9.45287 13.1207C10.1108 13.7786 11.0019 14.1499 11.9323 14.1538C12.8627 14.1577 13.757 13.7939 14.4204 13.1416L17.2132 10.348ZM14.42 3.8056C14.4488 3.77484 14.484 3.75084 14.5232 3.73531C14.5624 3.71978 14.6045 3.71312 14.6466 3.71579C14.6886 3.71847 14.7296 3.73042 14.7665 3.75079C14.8034 3.77116 14.8353 3.79944 14.86 3.8336C14.9197 3.91066 15.0055 3.96326 15.1012 3.98153C15.197 3.9998 15.2961 3.98247 15.38 3.9328C15.8345 3.66335 16.3658 3.55289 16.8901 3.61883C17.4144 3.68477 17.9018 3.92336 18.2755 4.29698C18.6491 4.67059 18.8878 5.15797 18.9538 5.68224C19.0198 6.20651 18.9094 6.73783 18.64 7.1924C18.5948 7.28383 18.5828 7.3881 18.606 7.4874C18.6292 7.5867 18.6862 7.67486 18.7672 7.7368C18.822 7.79222 18.8528 7.86704 18.8528 7.945C18.8528 8.02297 18.822 8.09779 18.7672 8.1532C18.7383 8.18388 18.703 8.2078 18.6638 8.22325C18.6246 8.2387 18.5825 8.24531 18.5405 8.2426C18.4985 8.23988 18.4575 8.22792 18.4207 8.20755C18.3838 8.18719 18.3519 8.15894 18.3272 8.1248C18.2675 8.04775 18.1817 7.99514 18.0859 7.97688C17.9902 7.95861 17.8911 7.97594 17.8072 8.0256C17.47 8.22653 17.0875 8.33882 16.6952 8.352C16.245 7.98002 15.8139 7.58551 15.4036 7.17C14.9883 6.76008 14.594 6.32954 14.222 5.88C14.2363 5.48765 14.3482 5.10506 14.5476 4.7668C14.5928 4.67562 14.6048 4.57151 14.5815 4.47242C14.5583 4.37333 14.5011 4.28548 14.42 4.224C14.3651 4.16845 14.3343 4.0935 14.3343 4.0154C14.3343 3.93731 14.3651 3.86236 14.42 3.8068V3.8056ZM13.0428 5.8328C13.0878 5.83561 13.1317 5.84827 13.1713 5.86991C13.2109 5.89154 13.2453 5.92162 13.272 5.958C13.749 6.58926 14.2732 7.18349 14.84 7.7356C15.3917 8.30099 15.9852 8.82394 16.6156 9.3C16.6523 9.32672 16.6826 9.36117 16.7045 9.40091C16.7265 9.44065 16.7394 9.48472 16.7424 9.53C16.7462 9.57629 16.7398 9.62284 16.7238 9.66643C16.7078 9.71001 16.6824 9.74959 16.6496 9.7824L15.3736 11.0588C13.2476 8.8224 12.8232 7.0328 12.8828 5.8652C12.9254 5.84392 12.9723 5.83244 13.02 5.8316C13.026 5.8316 13.0348 5.832 13.0428 5.8328ZM12.1056 6.6104C12.2324 7.62639 12.5816 8.60194 13.1284 9.4676C11.9708 9.58572 10.8014 9.452 9.70038 9.0756C9.78891 8.94839 9.88821 8.82902 9.99718 8.7188L12.1056 6.6104ZM9.99758 12.576C9.64245 12.219 9.39282 11.7709 9.27621 11.2811C9.15961 10.7912 9.18057 10.2787 9.33678 9.8C10.2839 10.142 11.2839 10.3141 12.2908 10.3084C12.7375 10.3084 13.1837 10.277 13.626 10.2144C13.9872 10.7099 14.3815 11.1803 14.8064 11.6224L13.8548 12.574C13.3427 13.0842 12.6494 13.3708 11.9266 13.3712C11.2038 13.3715 10.5102 13.0856 9.99758 12.576Z" fill="#1C1D1D"/>
</g>
<defs>
<clipPath id="clip0_332_21459">
<rect width="24" height="24" fill="white"/>
</clipPath>
</defs>
</svg>
