<svg width="24" height="24" viewBox="0 0 24 24" fill="none" xmlns="http://www.w3.org/2000/svg">
<g clip-path="url(#clip0_332_21471)">
<path d="M22.5752 20.2045L20.0205 20.7328C19.8809 20.7629 19.7404 20.7881 19.6 20.8129V17.4129C21.1863 16.4533 22.3086 14.884 22.7041 13.0728L23.1324 11.1457C23.3258 11.0926 23.5018 10.99 23.6432 10.848C23.8723 10.6254 24.001 10.3193 24 9.99999C24 9.3373 23.4627 8.79999 22.8 8.79999H13.6V1.2C13.5967 0.538671 13.0613 0.00332031 12.4 0C11.8934 0.00214844 11.4426 0.322265 11.2736 0.799999H9.20001C8.52383 0.802734 7.8504 0.887304 7.19434 1.05195C7.15313 1.05586 7.11251 1.06621 7.07442 1.08281C5.24806 1.56387 3.63693 2.6457 2.5004 4.1541C2.46095 4.18652 2.42794 4.22617 2.40372 4.27129C2.40001 4.27754 2.4004 4.28515 2.39728 4.29199C1.4299 5.62734 0.879896 7.21953 0.81681 8.86718C0.643178 8.92343 0.485561 9.02031 0.35685 9.1496C0.127162 9.37284 -0.00154844 9.67987 1.40618e-05 9.99999C0.00177187 10.5328 0.355483 11.0004 0.867591 11.1473L1.29611 13.0752C1.65724 14.7246 2.62169 16.1797 4.00001 17.1549V20.7367L3.97716 20.7324L1.42892 20.2053C1.34845 20.1881 1.26622 20.1797 1.184 20.1801C0.577553 20.1795 0.0689593 20.6381 0.00704531 21.2414C-0.0546734 21.8447 0.350014 22.3971 0.943959 22.5195L3.81642 23.116C6.5086 23.674 9.25059 23.9558 12 23.9572C14.7498 23.9566 17.4926 23.6752 20.1852 23.1172L23.0576 22.5213C23.6969 22.3881 24.1072 21.7617 23.974 21.1224C23.8408 20.483 23.2144 20.0728 22.5752 20.206V20.2045ZM12 1.2C12 0.979101 12.1791 0.799999 12.4 0.799999C12.5078 0.799609 12.6109 0.843945 12.6848 0.92246C12.7594 0.995312 12.801 1.0957 12.8 1.2V8.79999H12V1.2ZM9.20001 1.6H11.2V7.68007L7.83731 1.72754C8.28673 1.64414 8.74278 1.60137 9.20001 1.6ZM7.02598 1.91758L10.5732 8.19765L3.37325 4.33808C4.32735 3.19082 5.59767 2.34902 7.02598 1.91758ZM2.88849 4.98476L10.0072 8.79999H1.61036C1.68322 7.43593 2.12482 6.11738 2.88849 4.98476ZM1.20001 10.4C0.979115 10.4 0.800013 10.2209 0.800013 9.99999C0.799623 9.89218 0.843959 9.78905 0.922474 9.71523C0.995326 9.64062 1.09572 9.59902 1.20001 9.59999H22.8C23.0209 9.59999 23.2 9.77909 23.2 9.99999C23.2004 10.1078 23.156 10.2109 23.0775 10.2848C23.0047 10.3594 22.9043 10.401 22.8 10.4H1.20001ZM2.07677 12.9016L1.69884 11.2H22.3012L21.9232 12.9016C21.5633 14.5504 20.5225 15.9699 19.058 16.8088C19.0318 16.8203 19.0072 16.8349 18.9844 16.8519C18.0904 17.3451 17.0855 17.6025 16.0645 17.6H7.93399C6.7588 17.6029 5.6086 17.2605 4.62638 16.6152C4.60333 16.5963 4.57833 16.5799 4.55157 16.5664C3.28849 15.7062 2.40275 14.3947 2.07677 12.9016ZM17.2 21.2023C13.6147 21.6791 9.98067 21.6615 6.40001 21.15V18.224C6.90313 18.3404 7.41759 18.3994 7.93399 18.4H16.066C16.4459 18.3996 16.8252 18.3681 17.2 18.3056V21.2023ZM22.8947 21.7363L20.0232 22.3324C14.7311 23.432 9.26934 23.432 3.97716 22.3324L1.10568 21.7363C0.912513 21.6972 0.780677 21.5178 0.801381 21.3219C0.822084 21.1258 0.98849 20.9777 1.18556 20.9801C1.21251 20.9795 1.23927 20.9822 1.26564 20.9881L3.81525 21.5152C3.98595 21.5515 4.15685 21.5844 4.32755 21.6168C4.54454 21.6584 4.75411 21.5162 4.79571 21.2992C4.79845 21.2742 4.79981 21.2492 4.80001 21.224V17.64C5.05899 17.773 5.32618 17.8892 5.60001 17.9885V21.44C5.60079 21.4826 5.6045 21.525 5.61075 21.5672C5.6379 21.7365 5.77071 21.8691 5.94005 21.8961C7.94044 22.1998 9.96075 22.3521 11.984 22.3519C13.8816 22.3515 15.777 22.218 17.6561 21.9519C17.827 21.9269 17.9617 21.7937 17.9889 21.6232C17.9953 21.5808 17.999 21.5381 18 21.4951V18.1199C18.2725 18.0396 18.5396 17.9424 18.8 17.8289V21.3C18.8 21.5209 18.9791 21.7 19.2 21.7C19.2246 21.6994 19.2492 21.6971 19.2736 21.6931L22.7363 20.9881C22.8508 20.964 22.9697 20.9935 23.0596 21.068C23.149 21.14 23.2008 21.249 23.2 21.364C23.1986 21.5445 23.0715 21.6996 22.8947 21.7363Z" fill="#1C1D1D"/>
</g>
<defs>
<clipPath id="clip0_332_21471">
<rect width="24" height="24" fill="white"/>
</clipPath>
</defs>
</svg>
