<svg width="24" height="24" viewBox="0 0 24 24" fill="none" xmlns="http://www.w3.org/2000/svg">
<path d="M21.9339 0.979485C20.0464 0.526813 18.1285 0.199204 16.2337 0.00565678C15.6988 -0.0494682 15.2072 0.305376 15.0907 0.829907C14.937 1.52155 14.5476 2.15 13.9941 2.59949C13.4328 3.05525 12.7246 3.30627 12 3.30627C11.2754 3.30627 10.5672 3.05525 10.0059 2.59949C9.45245 2.15 9.06301 1.52155 8.90935 0.829954C8.79282 0.305282 8.30138 -0.0493745 7.76631 0.0056099C5.87167 0.199063 3.95387 0.526672 2.06607 0.979438C1.6141 1.08791 1.2984 1.48831 1.2984 1.95317V7.91155C1.2984 8.2145 1.43326 8.49786 1.66843 8.68897C1.90299 8.87956 2.20698 8.95349 2.50253 8.89152C3.13154 8.75984 3.77237 8.63928 4.4072 8.53316C4.54979 8.5093 4.64134 8.58927 4.6741 8.62466C4.70701 8.66033 4.77976 8.75848 4.74446 8.89963L3.0556 15.6455C3.00845 15.8338 3.12292 16.0247 3.31126 16.0719C3.49956 16.1191 3.69053 16.0046 3.73768 15.8162L4.36876 13.2955C4.3892 13.2992 4.4101 13.3014 4.43162 13.3014H8.22198C8.09837 13.521 8.00724 13.7542 7.99135 13.954C7.96393 14.3023 8.07662 14.6355 8.3087 14.8925C8.54096 15.1497 8.86117 15.2957 9.21029 15.3035C9.22018 15.3038 9.23007 15.3039 9.23996 15.3039C9.62068 15.3039 10.004 15.1392 10.3505 14.8263L10.9379 14.2959C11.2197 14.5492 11.5921 14.7037 12 14.7037C12.4079 14.7037 12.7803 14.5492 13.0621 14.2958L13.6496 14.8263C13.9961 15.1392 14.3794 15.3039 14.7601 15.3039C14.77 15.3039 14.7799 15.3038 14.7898 15.3035C15.1389 15.2957 15.4591 15.1497 15.6914 14.8925C15.9234 14.6355 16.0361 14.3022 16.0087 13.9538C15.9928 13.7541 15.9017 13.5209 15.7781 13.3014H19.6328L21.4631 20.6126C21.6114 21.2049 21.2755 21.8146 20.6984 22.0005C19.8531 22.2727 18.9924 22.503 18.1235 22.6904L16.9942 18.1798C16.9471 17.9914 16.756 17.8768 16.5678 17.9242C16.3794 17.9713 16.265 18.1623 16.3121 18.3506L17.4336 22.8302C16.9288 22.9253 16.4219 23.006 15.9142 23.0717C15.7216 23.0966 15.5857 23.2729 15.6106 23.4654C15.6335 23.6427 15.7847 23.7719 15.9588 23.7719C15.9738 23.7719 15.9891 23.771 16.0044 23.769C17.6641 23.5543 19.3159 23.1845 20.9139 22.6698C21.8422 22.3708 22.3831 21.3921 22.1452 20.4419L19.2556 8.89967C19.2202 8.75853 19.293 8.66033 19.3259 8.6247C19.3586 8.58927 19.4503 8.50906 19.5928 8.53316C20.2266 8.63909 20.8674 8.75966 21.4975 8.89152C21.7928 8.9533 22.0969 8.87956 22.3315 8.68902C22.5667 8.49795 22.7016 8.21464 22.7016 7.91159V1.95322C22.7016 1.48827 22.3859 1.08781 21.9339 0.979485ZM9.8792 14.3045C9.65949 14.503 9.43299 14.6042 9.22609 14.6007C9.07229 14.5972 8.93176 14.5335 8.83051 14.4214C8.72781 14.3076 8.68004 14.1651 8.69227 14.0096C8.70465 13.8536 8.8877 13.5001 9.1142 13.2602C9.28018 13.0843 9.29467 12.8152 9.14865 12.6204C8.93063 12.3295 8.8007 12.032 8.80956 11.8441C8.8149 11.7302 8.85081 11.5679 8.99143 11.441C9.10435 11.3389 9.25065 11.2892 9.4037 11.3006C9.60802 11.316 9.81915 11.4383 10.0142 11.6543L10.6194 12.3246C10.486 12.5572 10.4094 12.8263 10.4094 13.1131C10.4094 13.3271 10.4521 13.5312 10.529 13.7177L9.8792 14.3045ZM12 14.0006C11.5107 14.0006 11.1125 13.6025 11.1125 13.1131C11.1125 12.6238 11.5106 12.2257 12 12.2257C12.4893 12.2257 12.8874 12.6238 12.8874 13.1131C12.8874 13.6025 12.4893 14.0006 12 14.0006ZM15.1696 14.4213C15.0683 14.5335 14.9278 14.5971 14.7739 14.6006C14.5674 14.6054 14.3406 14.5029 14.1208 14.3045L13.4709 13.7176C13.5479 13.5311 13.5906 13.327 13.5906 13.1131C13.5906 12.8262 13.5139 12.5571 13.3805 12.3245L13.9858 11.6543C14.1808 11.4382 14.3919 11.3159 14.5962 11.3006C14.7497 11.2894 14.8957 11.339 15.0087 11.441C15.1492 11.5678 15.1851 11.7302 15.1905 11.844C15.1993 12.032 15.0694 12.3294 14.8513 12.6204C14.7053 12.8152 14.7198 13.0843 14.8859 13.2602C15.1123 13.5 15.2953 13.8536 15.3076 14.0092C15.32 14.1651 15.2722 14.3076 15.1696 14.4213ZM21.9985 7.91159C21.9985 8.00188 21.9583 8.0863 21.8882 8.1432C21.8474 8.17639 21.7609 8.22828 21.6415 8.20325C21.0021 8.06942 20.3519 7.94713 19.7088 7.83959C19.3753 7.78386 19.039 7.89908 18.8094 8.1477C18.5794 8.3968 18.4912 8.7417 18.5735 9.07044L19.4567 12.5983H15.6918C15.8108 12.3633 15.9058 12.0857 15.8928 11.8109C15.8763 11.4613 15.7296 11.1446 15.4799 10.9191C15.2228 10.6869 14.8905 10.5731 14.5435 10.5994C14.1556 10.6286 13.7823 10.8304 13.4639 11.183L12.9028 11.8045C12.6461 11.6269 12.3351 11.5225 12.0001 11.5225C11.665 11.5225 11.354 11.6269 11.0973 11.8045L10.5361 11.183C10.2177 10.8304 9.84442 10.6286 9.45648 10.5994C9.10988 10.573 8.77726 10.6869 8.5202 10.919C8.27035 11.1447 8.12368 11.4614 8.10723 11.811C8.09429 12.0856 8.18931 12.3633 8.30827 12.5983H4.54332L5.42654 9.07039C5.50885 8.74166 5.42068 8.3967 5.19067 8.14766C4.96103 7.89903 4.62474 7.78405 4.29123 7.83959C3.64707 7.94731 2.99682 8.06961 2.35853 8.20325C2.23918 8.22819 2.1527 8.17634 2.11182 8.14316C2.04174 8.0862 2.00153 8.00178 2.00153 7.9115V1.95317C2.00153 1.81475 2.09556 1.6955 2.23009 1.66316C3.68387 1.31455 5.15556 1.04169 6.62007 0.848141C6.75606 2.10392 7.32381 3.26539 8.24251 4.1518C9.25642 5.13008 10.5909 5.66881 12 5.66881C12.4396 5.66881 12.8771 5.61589 13.3002 5.51155C13.4887 5.46505 13.6038 5.2745 13.5573 5.08602C13.5108 4.89739 13.32 4.78245 13.1318 4.82881C12.7637 4.91961 12.383 4.96564 12 4.96564C10.7739 4.96564 9.6129 4.49689 8.73071 3.64574C7.92892 2.87216 7.43448 1.85797 7.31809 0.761844C7.49148 0.741922 7.66473 0.722704 7.83774 0.705032C8.01831 0.687407 8.18373 0.805813 8.22292 0.982344C8.41079 1.82811 8.88662 2.5962 9.5627 3.1452C10.2489 3.7025 11.1144 4.00939 12 4.00939C12.8855 4.00939 13.7511 3.7025 14.4373 3.1453C15.1134 2.5963 15.5891 1.82816 15.7771 0.982438C15.8163 0.805954 15.9817 0.687032 16.1623 0.705172C16.3352 0.722844 16.5084 0.742016 16.6816 0.761938C16.5271 2.21258 15.709 3.51097 14.4484 4.27991C14.2826 4.38102 14.2302 4.59739 14.3313 4.76314C14.3976 4.87175 14.5133 4.9317 14.6318 4.9317C14.6942 4.9317 14.7574 4.91511 14.8145 4.88023C16.2598 3.99861 17.1987 2.51108 17.3794 0.848188C18.8442 1.04173 20.3161 1.31459 21.7698 1.66325C21.9044 1.6955 21.9984 1.8148 21.9984 1.95327V7.91159H21.9985Z" fill="#1C1D1D"/>
<path d="M14.3934 23.225C13.7197 23.2739 13.0386 23.2975 12.3512 23.2966V18.2653C12.3512 18.0711 12.1937 17.9138 11.9996 17.9138C11.8054 17.9138 11.648 18.0711 11.648 18.2653V23.2868C9.99451 23.244 8.30546 23.0592 6.59068 22.7334L7.68784 18.3507C7.73499 18.1624 7.62052 17.9715 7.43218 17.9243C7.24416 17.8771 7.05291 17.9916 7.00576 18.18L5.90054 22.5948C5.05956 22.4172 4.21281 22.2062 3.36137 21.9615C2.75345 21.7868 2.3972 21.1708 2.55029 20.5592L3.36512 17.3045C3.41227 17.1162 3.29781 16.9253 3.10946 16.8781C2.92145 16.8311 2.7302 16.9454 2.68304 17.1338L1.86821 20.3885C1.62259 21.3696 2.19315 22.3574 3.16712 22.6373C6.32068 23.5436 9.41457 24 12.3927 24C13.083 24 13.7671 23.9754 14.4443 23.9264C14.6379 23.9123 14.7836 23.7439 14.7695 23.5502C14.7555 23.3566 14.587 23.2111 14.3934 23.225Z" fill="#1C1D1D"/>
</svg>
