<svg width="24" height="24" viewBox="0 0 24 24" fill="none" xmlns="http://www.w3.org/2000/svg">
<path d="M17.6488 20.2701L16.2358 15.1501C16.495 15.046 16.7172 14.8669 16.8738 14.6357C17.0305 14.4045 17.1144 14.1318 17.1149 13.8525V13.4174C17.1134 13.0759 16.9872 12.7466 16.7601 12.4916C16.5329 12.2366 16.2204 12.0733 15.8813 12.0324L16.2631 5.78998C16.2938 5.23973 16.2124 4.68897 16.0236 4.17121C15.8348 3.65345 15.5426 3.17951 15.1649 2.77821C14.7872 2.37692 14.3317 2.05667 13.8263 1.83693C13.3209 1.61719 12.7761 1.50257 12.225 1.50004L9.48376 1.5C8.92727 1.50397 8.37751 1.62202 7.86846 1.84688C7.35941 2.07173 6.90188 2.3986 6.52417 2.80728C6.14645 3.21597 5.85656 3.69778 5.67243 4.22293C5.4883 4.74809 5.41383 5.30543 5.45363 5.8605L5.93631 12.0222C5.5774 12.0394 5.23879 12.1938 4.99037 12.4534C4.74194 12.713 4.60266 13.0581 4.60126 13.4174V13.8525C4.60234 14.1301 4.68527 14.4013 4.83969 14.632C4.9941 14.8628 5.21313 15.0429 5.46938 15.1498L4.05601 20.2925C3.99427 20.5161 3.9778 20.7498 4.00757 20.9799C4.03733 21.2099 4.11272 21.4317 4.22933 21.6323C4.34593 21.8328 4.5014 22.0081 4.68662 22.1478C4.87184 22.2874 5.08308 22.3887 5.30796 22.4457C5.53284 22.5027 5.76683 22.5142 5.99621 22.4795C6.22559 22.4449 6.44575 22.3648 6.64378 22.244C6.84181 22.1231 7.01371 21.964 7.14943 21.7758C7.28514 21.5877 7.38193 21.3743 7.43411 21.1483L7.576 20.5312H14.1353L14.2709 21.1214C14.8648 23.399 18.2029 22.5597 17.6488 20.2701ZM7.06513 3.30853C7.37213 2.97313 7.74591 2.70568 8.16245 2.52338C8.57899 2.34108 9.02907 2.24795 9.48376 2.25H12.225C12.674 2.25209 13.1178 2.34547 13.5295 2.52447C13.9412 2.70348 14.3122 2.96436 14.6199 3.29125C14.9276 3.61814 15.1655 4.0042 15.3193 4.42596C15.4732 4.84773 15.5396 5.29636 15.5145 5.7446L15.131 12.015H6.68813L6.20142 5.80151C6.16351 5.34871 6.22076 4.89299 6.36951 4.46364C6.51826 4.03429 6.75521 3.64082 7.06513 3.30853ZM5.35126 13.4174C5.35196 13.2439 5.42144 13.0778 5.54447 12.9555C5.6675 12.8332 5.83403 12.7647 6.00751 12.765H15.7086C15.8821 12.7647 16.0486 12.8332 16.1717 12.9555C16.2947 13.0778 16.3642 13.2439 16.3649 13.4174V13.8525C16.3647 14.0264 16.2955 14.1933 16.1724 14.3163C16.0494 14.4393 15.8826 14.5085 15.7086 14.5087H6.00751C5.83367 14.508 5.66715 14.4387 5.54423 14.3157C5.42131 14.1928 5.35195 14.0263 5.35126 13.8525V13.4174ZM12.9238 15.2587L13.5752 18.0938H8.13659L8.78861 15.2587H12.9238ZM5.73743 21.75C5.58473 21.7489 5.4343 21.7129 5.2977 21.6446C5.1611 21.5763 5.04196 21.4777 4.94942 21.3562C4.85689 21.2347 4.79342 21.0936 4.76389 20.9438C4.73436 20.794 4.73956 20.6394 4.77908 20.4919L6.21733 15.2587H8.01901L6.70332 20.9799C6.65403 21.199 6.53145 21.3948 6.35582 21.5348C6.1802 21.6748 5.96205 21.7508 5.73743 21.75ZM7.74851 19.7812L7.96413 18.8438H13.7475L13.9629 19.7812H7.74851ZM16.8325 21.2249C16.7321 21.3968 16.5825 21.5347 16.403 21.6209C16.2235 21.7071 16.0224 21.7375 15.8254 21.7083C15.6284 21.6791 15.4447 21.5916 15.298 21.4571C15.1512 21.3225 15.048 21.1471 15.0018 20.9535L13.6934 15.2587H15.4878L16.9259 20.4701C16.9612 20.5958 16.9711 20.7273 16.9551 20.8569C16.939 20.9864 16.8974 21.1115 16.8325 21.2249Z" fill="white"/>
<path d="M8.47269 6.95715L9.21921 7.50903L8.93559 8.38189C8.88597 8.53473 8.88601 8.69936 8.93569 8.85218C8.98537 9.005 9.08214 9.13818 9.21214 9.23264C9.34215 9.32709 9.49871 9.37798 9.6594 9.378C9.8201 9.37803 9.97668 9.3272 10.1067 9.23278L10.8622 8.69335L11.6047 9.23278C11.7347 9.32719 11.8913 9.37802 12.052 9.37799C12.2127 9.37796 12.3693 9.32708 12.4993 9.23264C12.6293 9.13819 12.7261 9.00503 12.7758 8.85221C12.8255 8.6994 12.8256 8.53477 12.776 8.38191L12.4962 7.49678L13.2389 6.95715C13.369 6.86269 13.4657 6.72948 13.5154 6.57662C13.5651 6.42376 13.565 6.2591 13.5154 6.10625C13.4657 5.9534 13.3689 5.82021 13.2388 5.72578C13.1087 5.63134 12.9521 5.58051 12.7914 5.58057L11.8632 5.57287L11.5796 4.70001C11.5299 4.5472 11.4331 4.41404 11.3031 4.31961C11.1731 4.22517 11.0165 4.17432 10.8558 4.17432C10.6951 4.17432 10.5385 4.22517 10.4085 4.31961C10.2785 4.41404 10.1817 4.5472 10.132 4.70001L9.83792 5.58057H8.92002C8.76045 5.58288 8.60561 5.63505 8.47718 5.72978C8.34876 5.82452 8.25319 5.95705 8.20387 6.10882C8.15456 6.26059 8.15396 6.42399 8.20216 6.57612C8.25037 6.72825 8.34497 6.86148 8.47269 6.95715ZM9.83793 6.33056C9.9987 6.33078 10.1554 6.27998 10.2855 6.18548C10.4155 6.09098 10.5123 5.95765 10.5617 5.80468L10.8631 4.9245C10.8645 4.92677 10.8656 4.92924 10.8662 4.93182L11.1499 5.8045C11.1993 5.95755 11.296 6.09096 11.426 6.18551C11.5561 6.28005 11.7129 6.33085 11.8737 6.33056L12.798 6.35034L12.0553 6.88996C11.9252 6.9843 11.8283 7.1175 11.7786 7.27039C11.7289 7.42329 11.729 7.588 11.7788 7.74084L12.0456 8.62597C11.7667 8.45556 11.2077 7.90396 10.8556 7.9406C10.5104 7.90644 9.9272 8.45296 9.64895 8.61369L9.93259 7.74065C9.98243 7.58784 9.98252 7.42315 9.93283 7.27029C9.88315 7.11742 9.78626 6.98426 9.6561 6.88995L8.92002 6.33056L9.83793 6.33056Z" fill="white"/>
</svg>
