<svg width="25" height="17" viewBox="0 0 25 17" fill="none" xmlns="http://www.w3.org/2000/svg">
<path d="M21.9739 0H2.19269C1.02723 0 0.083313 0.949781 0.083313 2.10938V14.7656C0.083313 15.9321 1.03417 16.875 2.19269 16.875H21.9739C23.1296 16.875 24.0833 15.9361 24.0833 14.7656V2.10938C24.0833 0.951844 23.1431 0 21.9739 0ZM21.6785 1.40625C21.2476 1.83492 13.831 9.21249 13.5749 9.4672C13.1764 9.86564 12.6468 10.085 12.0833 10.085C11.5199 10.085 10.9902 9.86559 10.5904 9.46589C10.4182 9.29456 3.08345 1.99847 2.48809 1.40625H21.6785ZM1.48956 14.4794V2.39648L7.56634 8.44125L1.48956 14.4794ZM2.48898 15.4688L8.56338 9.43298L9.59739 10.4616C10.2614 11.1256 11.1443 11.4913 12.0833 11.4913C13.0224 11.4913 13.9052 11.1256 14.5679 10.4629L15.6033 9.43298L21.6776 15.4688H2.48898ZM22.6771 14.4794L16.6003 8.44125L22.6771 2.39648V14.4794Z" fill="#808385"/>
</svg>
