<svg width="18" height="18" viewBox="0 0 18 18" fill="none" xmlns="http://www.w3.org/2000/svg">
<g clip-path="url(#clip0_165_14674)">
<path d="M16.8176 2.51918C16.7853 2.2871 16.6183 2.0962 16.3926 2.03345L9.15806 0.0215294C9.05493 -0.00717647 8.94599 -0.00717647 8.84277 0.0215294L1.60826 2.03345C1.38253 2.0962 1.21555 2.28702 1.18324 2.51918C1.14128 2.8209 0.184025 9.95 2.63932 13.4965C5.09171 17.0388 8.70952 17.9465 8.8623 17.9835C8.90771 17.9945 8.95399 17.9999 9.00042 17.9999C9.04685 17.9999 9.09312 17.9944 9.13854 17.9835C9.2914 17.9465 12.9092 17.0388 15.3615 13.4965C17.8168 9.95008 16.8596 2.82098 16.8176 2.51918ZM13.6658 6.68121L8.73108 11.6159C8.61626 11.7307 8.46567 11.7882 8.31516 11.7882C8.16465 11.7882 8.01406 11.7308 7.89924 11.6159L4.84818 8.56482C4.73783 8.45455 4.67587 8.3049 4.67587 8.1489C4.67587 7.9929 4.73791 7.84325 4.84818 7.73298L5.45399 7.12718C5.68371 6.89753 6.05618 6.89745 6.28583 7.12718L8.31516 9.15651L12.2281 5.24349C12.3384 5.13314 12.488 5.07118 12.644 5.07118C12.8 5.07118 12.9497 5.13314 13.0599 5.24349L13.6658 5.84929C13.8955 6.07902 13.8955 6.45149 13.6658 6.68121Z" fill="#EDA62A"/>
</g>
<defs>
<clipPath id="clip0_165_14674">
<rect width="18" height="18" fill="white"/>
</clipPath>
</defs>
</svg>
