<svg width="18" height="18" viewBox="0 0 18 18" fill="none" xmlns="http://www.w3.org/2000/svg">
<path d="M12.7885 9.70117H10.3426C9.67325 9.70117 9.12891 10.2455 9.12891 10.9149V12.7907C9.12891 13.4601 9.67325 14.0044 10.3426 14.0044H12.7885C13.4579 14.0044 14.0022 13.4601 14.0022 12.7907V10.9149C14.0022 10.2455 13.4579 9.70117 12.7885 9.70117ZM13.1195 12.7907C13.1195 12.9746 12.9687 13.1217 12.7885 13.1217H10.3426C10.1587 13.1217 10.0116 12.9709 10.0116 12.7907V10.9149C10.0116 10.731 10.1624 10.5839 10.3426 10.5839H12.7885C12.9724 10.5839 13.1195 10.7347 13.1195 10.9149V12.7907Z" fill="white"/>
<path d="M18 6.29174C18 6.2145 17.9816 6.14094 17.9412 6.07474L15.2636 1.36693C15.1864 1.23085 15.0392 1.14258 14.8811 1.14258H3.11524C2.95709 1.14258 2.80997 1.22717 2.73273 1.36693L0.0588476 6.07474C0.0220678 6.14094 0 6.2145 0 6.29174C0 7.34732 0.636289 8.2521 1.54475 8.653V16.4172C1.54475 16.6599 1.74336 16.8586 1.98611 16.8586H4.4246C4.42828 16.8586 4.43196 16.8586 4.43564 16.8586H7.85615C7.85983 16.8586 7.86351 16.8586 7.86718 16.8586H16.0102C16.253 16.8586 16.4516 16.6599 16.4516 16.4172V8.70817C16.4516 8.68978 16.4516 8.67507 16.4479 8.66035C17.36 8.25946 18 7.351 18 6.29174ZM3.3727 2.02897H14.6236L16.7164 5.71062H1.28361L3.3727 2.02897ZM12.8104 6.58966C12.6706 7.3841 11.9755 7.98729 11.1406 7.98729C10.3057 7.98729 9.61054 7.3841 9.47078 6.58966H12.8104ZM8.5329 6.58966C8.39314 7.3841 7.698 7.98729 6.8631 7.98729C6.0282 7.98729 5.33306 7.3841 5.18962 6.58966H8.5329ZM0.912137 6.58966H4.25541C4.11565 7.3841 3.41684 7.98729 2.58194 7.98729C1.74704 7.99096 1.0519 7.3841 0.912137 6.58966ZM7.41479 15.9758H4.87699V11.2129C4.87699 10.8671 5.15652 10.5839 5.50593 10.5839H6.78954C7.13527 10.5839 7.41847 10.8635 7.41847 11.2129V15.9758H7.41479ZM15.5689 15.9758H8.29751V11.2129C8.29751 10.3816 7.62076 9.70122 6.78586 9.70122H5.50225C4.67103 9.70122 3.9906 10.378 3.9906 11.2129V15.9795H2.42746V8.87C2.47895 8.87368 2.53045 8.87368 2.58194 8.87368C3.47201 8.87368 4.25909 8.42129 4.72252 7.73351C5.18594 8.42129 5.97303 8.87368 6.8631 8.87368C7.75317 8.87368 8.53658 8.42129 9.00368 7.73351C9.4671 8.42129 10.2542 8.87368 11.1406 8.87368C12.0307 8.87368 12.8141 8.42129 13.2775 7.73351C13.7409 8.42129 14.528 8.87368 15.4181 8.87368C15.4696 8.87368 15.5174 8.87 15.5689 8.87V15.9758ZM15.4181 7.99096C14.5832 7.99096 13.888 7.38778 13.7483 6.59333H17.0915C16.9481 7.3841 16.253 7.99096 15.4181 7.99096Z" fill="white"/>
</svg>
