<svg width="14" height="14" viewBox="0 0 14 14" fill="none" xmlns="http://www.w3.org/2000/svg">
<g clip-path="url(#clip0_309_8896)">
<path d="M13.0799 1.95936C13.0548 1.77885 12.9249 1.63037 12.7493 1.58157L7.12251 0.0167451C7.04229 -0.0055817 6.95755 -0.0055817 6.87728 0.0167451L1.25043 1.58157C1.07487 1.63037 0.944997 1.77879 0.919864 1.95936C0.887228 2.19403 0.142696 7.73889 2.05237 10.4973C3.95979 13.2524 6.77363 13.9584 6.89247 13.9872C6.92779 13.9957 6.96378 13.9999 6.99989 13.9999C7.036 13.9999 7.072 13.9956 7.10732 13.9872C7.22621 13.9584 10.0401 13.2524 11.9474 10.4973C13.8571 7.73895 13.1126 2.1941 13.0799 1.95936ZM10.6285 5.1965L6.79041 9.03457C6.7011 9.12388 6.58398 9.1686 6.46691 9.1686C6.34985 9.1686 6.23273 9.12394 6.14342 9.03457L3.77037 6.66153C3.68454 6.57576 3.63635 6.45937 3.63635 6.33803C3.63635 6.2167 3.6846 6.10031 3.77037 6.01454L4.24155 5.54336C4.42023 5.36474 4.70993 5.36468 4.88854 5.54336L6.46691 7.12173L9.51031 4.07827C9.59608 3.99244 9.71247 3.94425 9.83381 3.94425C9.95514 3.94425 10.0715 3.99244 10.1573 4.07827L10.6285 4.54945C10.8072 4.72813 10.8072 5.01783 10.6285 5.1965Z" fill="#10919E"/>
</g>
<defs>
<clipPath id="clip0_309_8896">
<rect width="14" height="14" fill="white"/>
</clipPath>
</defs>
</svg>
