<svg width="13" height="13" viewBox="0 0 13 13" fill="none" xmlns="http://www.w3.org/2000/svg">
<path d="M6.58331 3.43415C8.34113 3.43415 9.79202 4.88504 9.79202 6.64286C9.79202 8.42857 8.34113 9.85156 6.58331 9.85156C4.7976 9.85156 3.37461 8.42857 3.37461 6.64286C3.37461 4.88504 4.7976 3.43415 6.58331 3.43415ZM6.58331 8.73549C7.72729 8.73549 8.64805 7.81473 8.64805 6.64286C8.64805 5.49888 7.72729 4.57812 6.58331 4.57812C5.41144 4.57812 4.49068 5.49888 4.49068 6.64286C4.49068 7.81473 5.43934 8.73549 6.58331 8.73549ZM10.657 3.32254C10.657 3.74107 10.3222 4.07589 9.90363 4.07589C9.4851 4.07589 9.15028 3.74107 9.15028 3.32254C9.15028 2.90402 9.4851 2.5692 9.90363 2.5692C10.3222 2.5692 10.657 2.90402 10.657 3.32254ZM12.7775 4.07589C12.8333 5.10826 12.8333 8.20536 12.7775 9.23772C12.7217 10.2422 12.4985 11.1071 11.773 11.8605C11.0476 12.5859 10.1547 12.8092 9.15028 12.865C8.11791 12.9208 5.02081 12.9208 3.98845 12.865C2.98398 12.8092 2.11903 12.5859 1.36568 11.8605C0.640232 11.1071 0.417018 10.2422 0.361214 9.23772C0.305411 8.20536 0.305411 5.10826 0.361214 4.07589C0.417018 3.07143 0.640232 2.17857 1.36568 1.45312C2.11903 0.727678 2.98398 0.504464 3.98845 0.44866C5.02081 0.392856 8.11791 0.392856 9.15028 0.44866C10.1547 0.504464 11.0476 0.727678 11.773 1.45312C12.4985 2.17857 12.7217 3.07143 12.7775 4.07589ZM11.4382 10.3259C11.773 9.51674 11.6893 7.56362 11.6893 6.64286C11.6893 5.75 11.773 3.79687 11.4382 2.95982C11.215 2.42969 10.7965 1.98326 10.2663 1.78795C9.4293 1.45312 7.47617 1.53683 6.58331 1.53683C5.66255 1.53683 3.70943 1.45312 2.90028 1.78795C2.34224 2.01116 1.92371 2.42969 1.7005 2.95982C1.36568 3.79687 1.44938 5.75 1.44938 6.64286C1.44938 7.56362 1.36568 9.51674 1.7005 10.3259C1.92371 10.8839 2.34224 11.3025 2.90028 11.5257C3.70943 11.8605 5.66255 11.7768 6.58331 11.7768C7.47617 11.7768 9.4293 11.8605 10.2663 11.5257C10.7965 11.3025 11.2429 10.8839 11.4382 10.3259Z" fill="#808385"/>
</svg>
