<svg width="16" height="17" viewBox="0 0 16 17" fill="none" xmlns="http://www.w3.org/2000/svg">
<path d="M14.153 11.8324C13.126 10.954 12.0837 10.422 11.0693 11.299L10.4636 11.8291C10.0205 12.2139 9.19647 14.0118 6.01067 10.347C2.82552 6.68684 4.72095 6.11695 5.16479 5.73548L5.77382 5.20473C6.7829 4.32568 6.40209 3.21907 5.67431 2.07996L5.23511 1.38999C4.50401 0.253528 3.70789 -0.492834 2.69616 0.384888L2.14949 0.862559C1.70233 1.1883 0.452425 2.24714 0.149237 4.25867C-0.215652 6.67224 0.935405 9.4361 3.57255 12.4687C6.20638 15.5025 8.78514 17.0264 11.2279 16.9999C13.258 16.978 14.484 15.8887 14.8675 15.4926L15.4162 15.0142C16.4252 14.1372 15.7983 13.2442 14.7706 12.3638L14.153 11.8324Z" fill="#808385"/>
</svg>
