<svg width="15" height="15" viewBox="0 0 15 15" fill="none" xmlns="http://www.w3.org/2000/svg">
<path d="M14.503 7.64286C14.503 11.4654 11.4059 14.5625 7.58331 14.5625C6.85787 14.5625 6.16032 14.4788 5.51858 14.2556C5.7976 13.8092 6.21613 13.0558 6.38354 12.442C6.46724 12.135 6.80206 10.7958 6.80206 10.7958C7.02528 11.2422 7.69492 11.6049 8.39246 11.6049C10.4851 11.6049 11.9918 9.67969 11.9918 7.30804C11.9918 5.02009 10.1224 3.29018 7.72282 3.29018C4.73733 3.29018 3.14693 5.29911 3.14693 7.47545C3.14693 8.50781 3.67706 9.76339 4.54202 10.1819C4.68153 10.2377 4.76523 10.2098 4.79313 10.0703C4.79313 9.98661 4.93264 9.51228 4.98845 9.28906C4.98845 9.23326 4.98845 9.14955 4.93264 9.09375C4.65363 8.75893 4.43041 8.11719 4.43041 7.50335C4.43041 5.99665 5.57438 4.51786 7.55541 4.51786C9.22952 4.51786 10.4293 5.66183 10.4293 7.33594C10.4293 9.20536 9.48063 10.4888 8.25296 10.4888C7.58331 10.4888 7.08108 9.9308 7.22059 9.26116C7.4159 8.42411 7.80653 7.53125 7.80653 6.94531C7.80653 6.41518 7.52751 5.96875 6.94157 5.96875C6.24403 5.96875 5.68599 6.6942 5.68599 7.64286C5.68599 8.2567 5.8813 8.67522 5.8813 8.67522C5.8813 8.67522 5.21166 11.577 5.07215 12.1071C4.93264 12.721 4.98845 13.558 5.04425 14.0882C2.47729 13.0837 0.66367 10.6004 0.66367 7.64286C0.66367 3.82031 3.76077 0.723214 7.58331 0.723214C11.4059 0.723214 14.503 3.82031 14.503 7.64286Z" fill="#808385"/>
</svg>
