<svg width="15" height="13" viewBox="0 0 15 13" fill="none" xmlns="http://www.w3.org/2000/svg">
<path d="M13.2474 3.74107C13.2474 3.88058 13.2474 3.99219 13.2474 4.1317C13.2474 8.01004 10.3177 12.4464 4.93264 12.4464C3.25854 12.4464 1.72394 11.9721 0.440455 11.135C0.66367 11.1629 0.886884 11.1908 1.138 11.1908C2.50519 11.1908 3.76077 10.7165 4.76523 9.93527C3.48175 9.90737 2.39358 9.07031 2.03086 7.89844C2.22617 7.92634 2.39358 7.95424 2.58889 7.95424C2.84001 7.95424 3.11903 7.89844 3.34224 7.84263C2.00296 7.56362 0.998491 6.39174 0.998491 4.96875V4.94085C1.38912 5.16406 1.86345 5.27567 2.33778 5.30357C1.52863 4.77344 1.02639 3.88058 1.02639 2.87612C1.02639 2.31808 1.1659 1.81585 1.41702 1.39732C2.86791 3.15513 5.04425 4.32701 7.47171 4.46652C7.4159 4.2433 7.388 4.02009 7.388 3.79687C7.388 2.17857 8.69938 0.867187 10.3177 0.867187C11.1547 0.867187 11.9081 1.20201 12.4661 1.78795C13.1079 1.64844 13.7496 1.39732 14.3076 1.0625C14.0844 1.76004 13.638 2.31808 13.0242 2.6808C13.6101 2.625 14.196 2.45759 14.6983 2.23437C14.3076 2.82031 13.8054 3.32254 13.2474 3.74107Z" fill="#808385"/>
</svg>
