<svg width="21" height="16" viewBox="0 0 21 16" fill="none" xmlns="http://www.w3.org/2000/svg">
<path d="M10.5826 15.2653C10.5809 15.2653 10.5791 15.2653 10.5773 15.2653C9.97378 15.2612 4.63869 15.2126 3.12715 14.8038C2.07078 14.5198 1.23689 13.6868 0.952157 12.6303C0.556648 11.1455 0.581825 8.28673 0.584572 8.05845C0.581978 7.83125 0.556496 4.94886 0.950936 3.45182C0.951394 3.45044 0.951699 3.44892 0.952157 3.44755C1.23368 2.40308 2.08634 1.54431 3.12455 1.25958C3.12715 1.25882 3.12989 1.25821 3.13249 1.25745C4.62694 0.864685 9.97256 0.81662 10.5773 0.8125H10.5881C11.1931 0.81662 16.5424 0.865296 18.04 1.27469C19.0937 1.55789 19.927 2.3898 20.2124 3.44495C20.6228 4.94306 20.5848 7.83171 20.5806 8.07554C20.5835 8.31572 20.6075 11.1488 20.2143 12.6411C20.214 12.6427 20.2135 12.644 20.2132 12.6454C19.9283 13.7019 19.0946 14.5349 18.037 14.8192C18.0356 14.8196 18.0341 14.8199 18.0327 14.8204C16.5384 15.213 11.1927 15.2611 10.5881 15.2653C10.5863 15.2653 10.5844 15.2653 10.5826 15.2653ZM2.46125 3.85251C2.11396 5.17393 2.14677 8.01954 2.14707 8.04823V8.06883C2.1367 8.85802 2.17317 11.1435 2.46141 12.2259C2.60118 12.7443 3.0124 13.1549 3.53395 13.2951C4.64922 13.5968 8.99447 13.6917 10.5826 13.7028C12.1749 13.6917 16.5265 13.5994 17.6336 13.3098C18.1534 13.1691 18.5633 12.7598 18.704 12.2409C18.9925 11.1426 19.0287 8.86824 19.0181 8.08409C19.0181 8.07585 19.0181 8.06761 19.0183 8.05937C19.0326 7.26072 19.0044 4.94855 18.7053 3.8574C18.705 3.85633 18.7047 3.85526 18.7046 3.85419C18.5642 3.33356 18.1528 2.92295 17.6313 2.78272C16.5268 2.48075 12.1746 2.38614 10.5826 2.375C8.99142 2.38614 4.64403 2.4783 3.53364 2.76761C3.02202 2.90952 2.60148 3.33478 2.46125 3.85251ZM8.59118 11.2028V4.87485L14.0599 8.03892L8.59118 11.2028Z" fill="#808385"/>
</svg>
