<svg id="Layer_1" data-name="Layer 1" xmlns="http://www.w3.org/2000/svg" viewBox="0 0 79.8 79.8"><defs><style>.cls-1{fill:none;stroke:#464646;stroke-linecap:round;stroke-linejoin:round;stroke-width:2px;}</style></defs><title>ic1</title><g id="restaurant"><line class="cls-1" x1="24.9" y1="41.2" x2="41.2" y2="41.2"/><line class="cls-1" x1="41.2" y1="46.2" x2="24.9" y2="46.2"/><path class="cls-1" d="M53.5,51.6a7.5,7.5,0,0,1-6.3,3.8H28.4" transform="translate(-1 -4.2)"/><path class="cls-1" d="M28.4,40.3H47.2a7.5,7.5,0,0,1,6.3,3.8H79.8" transform="translate(-1 -4.2)"/><line class="cls-1" x1="52.5" y1="47.5" x2="78.8" y2="47.5"/><line class="cls-1" x1="52.5" y1="47.5" x2="53.7" y2="44.9"/><path class="cls-1" d="M61,67.9l-5,3.8H39.7c-7.6,0-13.8-2.5-13.8-8.8H79.8" transform="translate(-1 -4.2)"/><path class="cls-1" d="M16.4,55.4A27,27,0,1,1,66,34" transform="translate(-1 -4.2)"/><path class="cls-1" d="M59.8,69.2H70.7a39,39,0,1,1,9.1-25.1" transform="translate(-1 -4.2)"/></g></svg>