<svg id="Layer_1" data-name="Layer 1" xmlns="http://www.w3.org/2000/svg" viewBox="0 0 81.4 81.4"><defs><style>.cls-1,.cls-2{fill:none;stroke:#464646;stroke-linecap:round;stroke-width:2px;}.cls-1{stroke-linejoin:round;}.cls-2{stroke-miterlimit:10;}</style></defs><title>ic2</title><g id="waiter-services"><path class="cls-1" d="M18.4,41.9h64a8.9,8.9,0,0,1-9,8.9H12a8.9,8.9,0,0,1-9-8.9H8.1" transform="translate(-2 -2.5)"/><path class="cls-1" d="M5.7,41.9c1.3-18.5,17.4-32,37-32s35.7,13.5,37,32" transform="translate(-2 -2.5)"/><path class="cls-1" d="M19.6,30.1c2.6-3.6,6.4-7.4,10.3-8.7" transform="translate(-2 -2.5)"/><path class="cls-2" d="M36.3,82.8S43.2,73.6,49.1,70,64.4,52.1,73.4,50.8" transform="translate(-2 -2.5)"/><path class="cls-1" d="M22.2,52.1a34.4,34.4,0,0,0-.4,9.6,3.7,3.7,0,0,1-1.1,3.2A16.5,16.5,0,0,0,15.8,79L12,82.8" transform="translate(-2 -2.5)"/><path class="cls-1" d="M28.6,50.8l1,3.9a10.7,10.7,0,0,1,.3,2.5v5.2a3.7,3.7,0,0,0,3.6,3.8H35s2.6-15.4,7.7-15.4" transform="translate(-2 -2.5)"/><path class="cls-2" d="M35,66.2s-8.8,1.9-11,10.2" transform="translate(-2 -2.5)"/><path class="cls-1" d="M47.8,50.8S44,57.2,44,62.4L59.3,50.8" transform="translate(-2 -2.5)"/><path class="cls-1" d="M37.6,8.6a5.1,5.1,0,1,1,10.2,0" transform="translate(-2 -2.5)"/></g></svg>