<svg id="Layer_1" data-name="Layer 1" xmlns="http://www.w3.org/2000/svg" viewBox="0 0 52.7 70.3"><defs><style>.cls-1,.cls-2{fill:none;stroke:#464646;stroke-linejoin:round;stroke-width:2px;}.cls-1{stroke-linecap:round;}</style></defs><title>ic3</title><g id="desserts"><path class="cls-1" d="M31.4,44.6c0-2.2,1.1-5.5,8.8-6.6,17.6-2.5,15.4-12.1,15.4-12.1a9.5,9.5,0,0,1,5.5,8.8c0,4.4-5.5,9.9-12.1,9.9H46.8" transform="translate(-17.2 -8.4)"/><path class="cls-1" d="M62.2,33.6s5.9,2.6,5,7.5a4.2,4.2,0,0,1-4.3,3.5h-.7" transform="translate(-17.2 -8.4)"/><path class="cls-1" d="M24.8,30.3s0-4.2,6.6-5.5,5.9-3.6,6.6-4.4" transform="translate(-17.2 -8.4)"/><path class="cls-1" d="M20.2,44.6a7.2,7.2,0,0,1,.5-4.8,12.3,12.3,0,0,1,3.9-4.6,22.6,22.6,0,0,1,4.3-2.4c7.8-3.3,18.7-3.7,21.2-13.5,0,0,5.5,2.2,5.5,6.6" transform="translate(-17.2 -8.4)"/><path class="cls-2" d="M18.2,53.4l8.2,22.8a2.4,2.4,0,0,0,2.1,1.5h30a2.1,2.1,0,0,0,2-1.5l8.3-22.8-2.1-2a3.2,3.2,0,0,0-4.6,0l-2.1,2-3.4-2.7a3.3,3.3,0,0,0-4.2,0L49,53.4l-3.5-2.7a3.2,3.2,0,0,0-4.1,0L38,53.4l-3.5-2.7a3.2,3.2,0,0,0-4.1,0L27,53.4l-2.1-2a3.3,3.3,0,0,0-4.7,0Z" transform="translate(-17.2 -8.4)"/><line class="cls-1" x1="20.8" y1="45.1" x2="21.9" y2="58.3"/><line class="cls-1" x1="9.8" y1="45.1" x2="14.2" y2="58.3"/><line class="cls-1" x1="31.8" y1="45.1" x2="30.7" y2="58.3"/><line class="cls-1" x1="42.9" y1="45.1" x2="38.4" y2="58.3"/><path class="cls-1" d="M43.5,22.6a6.6,6.6,0,0,1,0-13.2,6.5,6.5,0,0,1,6.2,4.4" transform="translate(-17.2 -8.4)"/></g></svg>