<svg id="Layer_1" data-name="Layer 1" xmlns="http://www.w3.org/2000/svg" viewBox="0 0 79.7 80"><defs><style>.cls-1,.cls-3{fill:none;stroke:#464646;stroke-linejoin:round;stroke-width:2px;}.cls-1{stroke-linecap:round;}.cls-2{fill:#464646;}.cls-3{stroke-linecap:square;}</style></defs><title>ic4</title><g id="wine_list-winery" data-name="wine list-winery"><path class="cls-1" d="M42,75.5a31.5,31.5,0,1,1,0-62.9" transform="translate(-2 -4)"/><path class="cls-1" d="M42,83A39,39,0,0,1,42,5" transform="translate(-2 -4)"/><line class="cls-1" x1="19.9" y1="27.4" x2="19.9" y2="52.6"/><line class="cls-1" x1="29.9" y1="18.6" x2="29.9" y2="61.4"/><circle class="cls-2" cx="40" cy="61.4" r="2.5"/><path class="cls-3" d="M47,83H77.2S64.6,78,62.1,70.4C59.6,78,47,83,47,83Z" transform="translate(-2 -4)"/><line class="cls-1" x1="60.1" y1="50" x2="60.1" y2="66.4"/><path class="cls-1" d="M74.7,5H49.5L43.8,30.5a19.2,19.2,0,0,0,6.8,18.4,18.9,18.9,0,0,0,23,0,19.2,19.2,0,0,0,6.8-18.4Z" transform="translate(-2 -4)"/><line class="cls-1" x1="52.6" y1="28.7" x2="77.7" y2="28.7"/></g></svg>