<svg id="Layer_1" data-name="Layer 1" xmlns="http://www.w3.org/2000/svg" viewBox="0 0 76 76"><defs><style>.cls-1{fill:none;stroke:#464646;stroke-linecap:round;stroke-linejoin:round;stroke-width:2px;}</style></defs><title>ic5</title><g id="fish"><g id="fish-2" data-name="fish"><path class="cls-1" d="M44.9,23.3a45.1,45.1,0,0,0-12.3-1.1" transform="translate(-4.3 -6)"/><path class="cls-1" d="M61.5,51.1c-3.2-2.6-8.7-3.1-13.7.6l7.7,5.4v9.6c3.6-1.2,13.1-7.2,13.1-20.3,0-7.2-4.4-13.3-11.2-17.8" transform="translate(-4.3 -6)"/><path class="cls-1" d="M59.1,29.6a9.3,9.3,0,0,1,1.2-9.5c.2-.3-12-3.6-21.5,1.2" transform="translate(-4.3 -6)"/><path class="cls-1" d="M39.6,45.2c6.3-14.1-7-23-7-23-10.4,0-18.9,7.1-18.9,16.6s8.5,16.1,18.9,16.1a34,34,0,0,0,8.6-1" transform="translate(-4.3 -6)"/><line class="cls-1" x1="11.7" y1="39.2" x2="15.3" y2="39.2"/><path class="cls-1" d="M23.3,35.6a3.6,3.6,0,1,1,7.1,0" transform="translate(-4.3 -6)"/></g><circle class="cls-1" cx="38" cy="38" r="37"/><path class="cls-1" d="M46,70a21.9,21.9,0,0,1-3.6.3A26.4,26.4,0,0,1,21.2,59.5" transform="translate(-4.3 -6)"/></g></svg>