<svg id="Layer_1" data-name="Layer 1" xmlns="http://www.w3.org/2000/svg" viewBox="0 0 78.1 83.1"><defs><style>.cls-1{fill:none;stroke:#464646;stroke-linecap:round;stroke-linejoin:round;stroke-width:2px;}</style></defs><title>ic6</title><g id="coffee_cup" data-name="coffee cup"><path class="cls-1" d="M38.4,2.9s3.6,2.8,0,7.8,0,7.9,0,7.9" transform="translate(-3.2 -1.9)"/><path class="cls-1" d="M44.9,13.4s3.7,2.8,0,7.8,0,7.9,0,7.9" transform="translate(-3.2 -1.9)"/><path class="cls-1" d="M29.2,74.8H80c.4,0,.6.7.1.8-3.6,1.1-9.8,3.5-13.5,7.6a2.8,2.8,0,0,1-2,.8H20a2.7,2.7,0,0,1-1.9-.8c-3.8-4.1-10-6.5-13.6-7.6-.4-.1-.3-.8.1-.8H17.5" transform="translate(-3.2 -1.9)"/><path class="cls-1" d="M60.6,68.3C67,61,69,49.9,69.5,43.8a3.8,3.8,0,0,0-3.9-4.3H16.4a3.9,3.9,0,0,0-3.9,4.3c.6,6.1,2.5,17.2,8.9,24.5" transform="translate(-3.2 -1.9)"/><path class="cls-1" d="M22.5,50a46,46,0,0,0,3,9.1" transform="translate(-3.2 -1.9)"/><path class="cls-1" d="M69.8,44.8c4.8,0,9.2,3.1,9.2,7.8,0,7.9-8.3,11.8-14.4,11.8" transform="translate(-3.2 -1.9)"/></g></svg>