<svg id="Layer_1" data-name="Layer 1" xmlns="http://www.w3.org/2000/svg" viewBox="0 0 78.1 80.7"><defs><style>.cls-1,.cls-3{fill:none;stroke:#464646;stroke-linejoin:round;stroke-width:2px;}.cls-1{stroke-linecap:round;}.cls-2{fill:#464646;}.cls-3{stroke-linecap:square;}</style></defs><title>ic7</title><g id="beverages-water-juices"><path class="cls-1" d="M47.4,23.1H79.1L75.5,81.6A2.5,2.5,0,0,1,72.9,84H47.2a2.5,2.5,0,0,1-2.5-2.4L43.2,57.3" transform="translate(-3.2 -4.3)"/><polyline class="cls-1" points="50.5 72.1 60.6 13.7 77.2 1"/><line class="cls-1" x1="49.2" y1="37.8" x2="74.6" y2="37.8"/><circle class="cls-1" cx="64.5" cy="58.1" r="3.8"/><circle class="cls-2" cx="59.4" cy="70.8" r="2.5"/><circle class="cls-2" cx="63.2" cy="45.4" r="2.5"/><path class="cls-1" d="M37.2,5.3H9.3c2.6,15.2-5.1,22.1-5.1,33a18.8,18.8,0,0,0,19.1,19,18.7,18.7,0,0,0,19-19C42.3,27.4,34.7,20.5,37.2,5.3Z" transform="translate(-3.2 -4.3)"/><line class="cls-1" x1="13.7" y1="27.7" x2="37.8" y2="27.7"/><line class="cls-1" x1="20" y1="53" x2="20" y2="67"/><path class="cls-3" d="M8.1,84H38.5S25.8,78.9,23.3,71.3C20.7,78.9,8.1,84,8.1,84Z" transform="translate(-3.2 -4.3)"/></g></svg>