<svg id="Layer_1" data-name="Layer 1" xmlns="http://www.w3.org/2000/svg" viewBox="0 0 78.1 78.1"><defs><style>.cls-1{fill:none;stroke:#464646;stroke-linecap:round;stroke-linejoin:round;stroke-width:2px;}</style></defs><title>ic8</title><g id="turkey-fowl-main_courses" data-name="turkey-fowl-main courses"><path class="cls-1" d="M75.5,66.3c1.2-1.3,2.4-5.4,2.4-8.6,0-14-11.4-24.6-25.8-24.6a31.4,31.4,0,0,0-8.6,1.3,42.5,42.5,0,0,0-4.9,2.1" transform="translate(-3.2 -3.9)"/><path class="cls-1" d="M9.2,35.6H8.5a4.3,4.3,0,0,0-4.3,4.3,4.4,4.4,0,0,0,4.3,4.3,4.4,4.4,0,0,0,3.1-1.3l2.5,2.5s0,8.6,6.1,12.3c0,0-.7,3.9,2.5,8.6" transform="translate(-3.2 -3.9)"/><path class="cls-1" d="M48.5,58.9S48.7,42.2,30,44.2a12.1,12.1,0,0,0-12.2-2.5l-2.5-2.5a4.3,4.3,0,0,0-3.1-7.3A4.3,4.3,0,0,0,8,35.6" transform="translate(-3.2 -3.9)"/><path class="cls-1" d="M23.9,22.1h-.6A4.3,4.3,0,0,0,19,26.3a4.3,4.3,0,0,0,4.3,4.3,4.1,4.1,0,0,0,3-1.2l2.5,2.5a22.1,22.1,0,0,0,.4,4.9" transform="translate(-3.2 -3.9)"/><path class="cls-1" d="M47.2,33.1a25.5,25.5,0,0,0-14.7-4.9L30,25.7A4.3,4.3,0,1,0,22.7,22" transform="translate(-3.2 -3.9)"/><path class="cls-1" d="M53.4,42.9c1.5,1.6,2.1,5.5,2.3,8.3A3.1,3.1,0,0,0,58.8,54h.1A3.1,3.1,0,0,0,62,50.9h0a3,3,0,0,1,3-3.1h0a3.1,3.1,0,0,1,3.1,3.1v5.5a2.5,2.5,0,0,0,2.5,2.5" transform="translate(-3.2 -3.9)"/><path class="cls-1" d="M64.4,4.9s3.5,2.6,0,7.3,0,7.4,0,7.4" transform="translate(-3.2 -3.9)"/><path class="cls-1" d="M70.6,14.7s3.4,2.6,0,7.3,0,7.4,0,7.4" transform="translate(-3.2 -3.9)"/><line class="cls-1" x1="15.7" y1="68.6" x2="24.3" y2="68.6"/><line class="cls-1" x1="35.4" y1="68.6" x2="77.1" y2="68.6"/><path class="cls-1" d="M76.7,72.4h0A8.5,8.5,0,0,1,68.1,81H31.3a8.5,8.5,0,0,1-8.6-8.6h0" transform="translate(-3.2 -3.9)"/></g></svg>