<svg width="12" height="9" viewBox="0 0 12 9" fill="none" xmlns="http://www.w3.org/2000/svg">
<path d="M11.7251 0.323305C11.6457 0.249948 11.5513 0.191723 11.4472 0.151988C11.3432 0.112254 11.2316 0.0917969 11.1189 0.0917969C11.0062 0.0917969 10.8946 0.112254 10.7905 0.151988C10.6865 0.191723 10.592 0.249948 10.5126 0.323305L4.15139 6.16192L1.47882 3.70438C1.3964 3.63141 1.29911 3.57403 1.1925 3.53552C1.08589 3.49701 0.972054 3.47812 0.857483 3.47994C0.742911 3.48176 0.629852 3.50424 0.524761 3.54611C0.419669 3.58798 0.324603 3.64841 0.244991 3.72395C0.165378 3.79949 0.102779 3.88867 0.0607656 3.98639C0.0187524 4.08411 -0.00185163 4.18845 0.000130571 4.29347C0.00211277 4.39849 0.0266423 4.50212 0.0723181 4.59845C0.117994 4.69477 0.183922 4.78191 0.266338 4.85489L3.54515 7.86029C3.62453 7.93365 3.71897 7.99187 3.82302 8.03161C3.92707 8.07134 4.03867 8.0918 4.15139 8.0918C4.26411 8.0918 4.37572 8.07134 4.47977 8.03161C4.58382 7.99187 4.67826 7.93365 4.75763 7.86029L11.7251 1.47381C11.8118 1.40052 11.881 1.31157 11.9283 1.21257C11.9756 1.11356 12 1.00664 12 0.898558C12 0.790472 11.9756 0.683557 11.9283 0.584551C11.881 0.485545 11.8118 0.396595 11.7251 0.323305V0.323305Z" fill="white"/>
</svg>
