<svg width="29" height="28" viewBox="0 0 29 28" fill="none" xmlns="http://www.w3.org/2000/svg">
<g clip-path="url(#clip0_114_7641)">
<path fill-rule="evenodd" clip-rule="evenodd" d="M14.0666 15.2C14.0666 14.8688 13.7978 14.6 13.4666 14.6H9.26663C8.93543 14.6 8.66663 14.8688 8.66663 15.2V19.4C8.66663 19.7312 8.93543 20 9.26663 20H13.4666C13.7978 20 14.0666 19.7312 14.0666 19.4V15.2ZM20.6666 15.2C20.6666 14.8688 20.3978 14.6 20.0666 14.6H15.8666C15.5354 14.6 15.2666 14.8688 15.2666 15.2V19.4C15.2666 19.7312 15.5354 20 15.8666 20H20.0666C20.3978 20 20.6666 19.7312 20.6666 19.4V15.2ZM12.8666 15.8V18.8H9.86663V15.8H12.8666ZM19.4666 15.8V18.8H16.4666V15.8H19.4666ZM20.6666 8.6C20.6666 8.2688 20.3978 8 20.0666 8H15.8666C15.5354 8 15.2666 8.2688 15.2666 8.6V12.8C15.2666 13.1312 15.5354 13.4 15.8666 13.4H20.0666C20.3978 13.4 20.6666 13.1312 20.6666 12.8V8.6ZM14.0666 8.6C14.0666 8.2688 13.7978 8 13.4666 8H9.26663C8.93543 8 8.66663 8.2688 8.66663 8.6V12.8C8.66663 13.1312 8.93543 13.4 9.26663 13.4H13.4666C13.7978 13.4 14.0666 13.1312 14.0666 12.8V8.6ZM19.4666 9.2V12.2H16.4666V9.2H19.4666ZM12.8666 9.2V12.2H9.86663V9.2H12.8666Z" fill="#294646"/>
</g>
<rect x="0.999959" y="0.333333" width="27.3333" height="27.3333" rx="3.66667" stroke="#294646" stroke-width="0.666667"/>
<defs>
<clipPath id="clip0_114_7641">
<rect width="12" height="12" fill="white" transform="translate(8.66663 8)"/>
</clipPath>
</defs>
</svg>
