<svg width="90" height="90" viewBox="0 0 90 90" xmlns="http://www.w3.org/2000/svg"><title>ic_05_sd</title><g fill="none" fill-rule="evenodd"><path d="M16 16h58v58H16z"/><path d="M34.032 35.84A3.001 3.001 0 0 1 35 30a3 3 0 0 1 1.037 5.816 9.001 9.001 0 0 0 17.926 0 3.001 3.001 0 1 1 2.005.024C55.54 41.523 50.792 46 45 46s-10.54-4.477-10.968-10.16zM59 23a1 1 0 0 1 0-2h6a3 3 0 0 1 3 3v42a3 3 0 0 1-3 3H25a3 3 0 0 1-3-3V24a3 3 0 0 1 3-3h26a1 1 0 0 1 0 2H25a1 1 0 0 0-1 1v42a1 1 0 0 0 1 1h40a1 1 0 0 0 1-1V24a1 1 0 0 0-1-1h-6zm-4 11a1 1 0 1 0 0-2 1 1 0 0 0 0 2zm-20 0a1 1 0 1 0 0-2 1 1 0 0 0 0 2zm2 28a1 1 0 0 1 0-2h16a1 1 0 0 1 0 2H37zm-6-4a1 1 0 0 1 0-2h28a1 1 0 0 1 0 2H31z" fill="#333" fill-rule="nonzero"/></g></svg>